<?xml version="1.0" standalone="no"?>
<!DOCTYPE svg PUBLIC "-//W3C//DTD SVG 1.1//EN" 
  "http://www.w3.org/Graphics/SVG/1.1/DTD/svg11.dtd"><svg height="675.5" version="1.1" width="1153.125" xmlns="http://www.w3.org/2000/svg" xmlns:svg="http://www.w3.org/2000/svg" xmlns:xlink="http://www.w3.org/1999/xlink"><defs><path d="" id="BitstreamVeraSans-Roman-32" /><path d="M 18 -9.90625 L 18 -8.54688 L 4.78125 -8.54688 Q 4.78125 -5.5625 6.40625 -4 Q 8.03125 -2.45312 10.9375 -2.45312 Q 12.625 -2.45312 14.2031 -2.85938 Q 15.7812 -3.26562 17.3281 -4.07812 L 17.3281 -1.35938 Q 15.7812 -0.703125 14.1562 -0.34375 Q 12.5312 -0 10.8438 -0 Q 6.65625 -0 4.20312 -2.375 Q 1.75 -4.76562 1.75 -8.84375 Q 1.75 -13.0625 4.07812 -15.5312 Q 6.40625 -18 10.3438 -18 Q 13.8906 -18 15.9375 -15.8125 Q 18 -13.6406 18 -9.90625 M 15.125 -11 Q 15.125 -13.0781 13.8125 -14.3125 Q 12.5156 -15.5469 10.3594 -15.5469 Q 7.92188 -15.5469 6.45312 -14.3594 Q 5 -13.1719 4.78125 -11 Z" id="BitstreamVeraSans-Roman-101" /><path d="M 9.78125 -15.5469 Q 7.46875 -15.5469 6.125 -13.7969 Q 4.78125 -12.0469 4.78125 -9 Q 4.78125 -5.95312 6.10938 -4.20312 Q 7.45312 -2.45312 9.78125 -2.45312 Q 12.0625 -2.45312 13.4062 -4.20312 Q 14.75 -5.96875 14.75 -9 Q 14.75 -12.0156 13.4062 -13.7812 Q 12.0625 -15.5469 9.78125 -15.5469 M 9.76562 -18 Q 13.5156 -18 15.6406 -15.6094 Q 17.7812 -13.2344 17.7812 -9 Q 17.7812 -4.78125 15.6406 -2.39062 Q 13.5156 -0 9.76562 -0 Q 6.01562 -0 3.875 -2.39062 Q 1.75 -4.78125 1.75 -9 Q 1.75 -13.2344 3.875 -15.6094 Q 6.01562 -18 9.76562 -18" id="BitstreamVeraSans-Roman-111" /><path d="M 17.1094 -21.8594 L 17.1094 -18.9375 Q 15.3125 -19.75 13.7188 -20.1406 Q 12.125 -20.5469 10.6406 -20.5469 Q 8.04688 -20.5469 6.64062 -19.5938 Q 5.25 -18.6406 5.25 -16.8906 Q 5.25 -15.4219 6.17188 -14.6719 Q 7.10938 -13.9219 9.70312 -13.4688 L 11.6094 -13.1094 Q 15.1406 -12.4688 16.8125 -10.8594 Q 18.5 -9.25 18.5 -6.54688 Q 18.5 -3.32812 16.2344 -1.65625 Q 13.9688 -0 9.59375 -0 Q 7.9375 -0 6.07812 -0.359375 Q 4.21875 -0.71875 2.21875 -1.42188 L 2.21875 -4.51562 Q 4.14062 -3.48438 5.98438 -2.96875 Q 7.82812 -2.45312 9.60938 -2.45312 Q 12.3125 -2.45312 13.7812 -3.45312 Q 15.25 -4.46875 15.25 -6.34375 Q 15.25 -7.96875 14.1875 -8.89062 Q 13.1406 -9.8125 10.7344 -10.2656 L 8.8125 -10.625 Q 5.28125 -11.2812 3.70312 -12.7031 Q 2.125 -14.1406 2.125 -16.6719 Q 2.125 -19.625 4.29688 -21.3125 Q 6.48438 -23 10.2969 -23 Q 11.9375 -23 13.6406 -22.7031 Q 15.3438 -22.4219 17.1094 -21.8594" id="BitstreamVeraSans-Roman-83" /><path d="M 5.875 -22.5 L 5.875 -18 L 11.75 -18 L 11.75 -15.5469 L 5.875 -15.5469 L 5.875 -5.85938 Q 5.875 -3.65625 6.45312 -3.03125 Q 7.03125 -2.42188 8.82812 -2.42188 L 11.75 -2.42188 L 11.75 -0 L 8.8125 -0 Q 5.51562 -0 4.25 -1.26562 Q 3 -2.53125 3 -5.875 L 3 -15.5469 L 0.875 -15.5469 L 0.875 -18 L 3 -18 L 3 -22.5 Z" id="BitstreamVeraSans-Roman-116" /><path d="M 3 -18 L 5.875 -18 L 5.875 -0 L 3 -0 Z M 3 -24 L 5.875 -24 L 5.875 -20 L 3 -20 Z" id="BitstreamVeraSans-Roman-105" /><path d="M 3 -24 L 5.875 -24 L 5.875 -0 L 3 -0 Z" id="BitstreamVeraSans-Roman-108" /><path d="M 16.6406 -14.25 Q 17.7188 -16.1562 19.2188 -17.0781 Q 20.7344 -18 22.7812 -18 Q 25.5156 -18 27 -16.0781 Q 28.5 -14.1562 28.5 -10.6094 L 28.5 -0 L 25.625 -0 L 25.625 -10.5625 Q 25.625 -13.0938 24.7188 -14.3125 Q 23.8281 -15.5469 21.9844 -15.5469 Q 19.7344 -15.5469 18.4219 -14.0469 Q 17.125 -12.5469 17.125 -9.98438 L 17.125 -0 L 14.25 -0 L 14.25 -10.5625 Q 14.25 -13.1094 13.3438 -14.3281 Q 12.4531 -15.5469 10.5781 -15.5469 Q 8.35938 -15.5469 7.04688 -14.0312 Q 5.75 -12.5312 5.75 -9.98438 L 5.75 -0 L 2.875 -0 L 2.875 -18 L 5.75 -18 L 5.75 -14.9062 Q 6.73438 -16.5 8.10938 -17.25 Q 9.5 -18 11.4062 -18 Q 13.3125 -18 14.6562 -17.0312 Q 16 -16.0781 16.6406 -14.25" id="BitstreamVeraSans-Roman-109" /><path d="M 5.75 -3.10938 L 5.75 7 L 2.875 7 L 2.875 -18 L 5.75 -18 L 5.75 -14.8906 Q 6.65625 -16.4844 8.03125 -17.2344 Q 9.42188 -18 11.3594 -18 Q 14.5469 -18 16.5312 -15.5156 Q 18.5312 -13.0469 18.5312 -9 Q 18.5312 -4.95312 16.5312 -2.46875 Q 14.5469 -0 11.3594 -0 Q 9.42188 -0 8.03125 -0.75 Q 6.65625 -1.51562 5.75 -3.10938 M 15.5 -9 Q 15.5 -12.0625 14.2031 -13.7969 Q 12.9062 -15.5469 10.625 -15.5469 Q 8.35938 -15.5469 7.04688 -13.7969 Q 5.75 -12.0625 5.75 -9 Q 5.75 -5.9375 7.04688 -4.1875 Q 8.35938 -2.45312 10.625 -2.45312 Q 12.9062 -2.45312 14.2031 -4.1875 Q 15.5 -5.9375 15.5 -9" id="BitstreamVeraSans-Roman-112" /><path d="M 14.1719 -17.0469 L 14.1719 -14.3438 Q 12.9531 -14.9531 11.6406 -15.25 Q 10.3281 -15.5469 8.92188 -15.5469 Q 6.76562 -15.5469 5.6875 -14.9062 Q 4.625 -14.2812 4.625 -13 Q 4.625 -12.0156 5.39062 -11.4531 Q 6.15625 -10.9062 8.48438 -10.4062 L 9.46875 -10.2031 Q 12.5469 -9.5625 13.8281 -8.39062 Q 15.125 -7.23438 15.125 -5.14062 Q 15.125 -2.76562 13.1875 -1.375 Q 11.2656 -0 7.89062 -0 Q 6.48438 -0 4.95312 -0.28125 Q 3.4375 -0.5625 1.75 -1.10938 L 1.75 -4.04688 Q 3.34375 -3.25 4.875 -2.84375 Q 6.42188 -2.45312 7.92188 -2.45312 Q 9.95312 -2.45312 11.0312 -3.125 Q 12.125 -3.79688 12.125 -5.03125 Q 12.125 -6.1875 11.3438 -6.78125 Q 10.5625 -7.39062 7.89062 -7.95312 L 6.90625 -8.1875 Q 4.23438 -8.71875 3.04688 -9.85938 Q 1.875 -11 1.875 -12.9844 Q 1.875 -15.375 3.625 -16.6875 Q 5.375 -18 8.59375 -18 Q 10.1719 -18 11.5781 -17.75 Q 12.9844 -17.5156 14.1719 -17.0469" id="BitstreamVeraSans-Roman-115" /><path d="M 2.01562 -23 L 5.40625 -23 L 11.2031 -14.4531 L 17.0312 -23 L 20.4219 -23 L 12.9219 -11.9531 L 20.9219 -0 L 17.5312 -0 L 10.9688 -9.78125 L 4.35938 -0 L 0.953125 -0 L 9.28125 -12.2812 Z" id="BitstreamVeraSans-Roman-88" /><path d="M 17.5625 -18 L 11.2344 -9.23438 L 17.8906 -0 L 14.5 -0 L 9.40625 -7.07812 L 4.3125 -0 L 0.921875 -0 L 7.71875 -9.42188 L 1.5 -18 L 4.89062 -18 L 9.53125 -11.5938 L 14.1719 -18 Z" id="BitstreamVeraSans-Roman-120" /><path d="M 10.9062 -9 Q 7.42188 -9 6.07812 -8.23438 Q 4.75 -7.48438 4.75 -5.625 Q 4.75 -4.17188 5.75 -3.3125 Q 6.76562 -2.45312 8.48438 -2.45312 Q 10.875 -2.45312 12.3125 -4.0625 Q 13.75 -5.6875 13.75 -8.39062 L 13.75 -9 Z M 16.625 -10.0312 L 16.625 -0 L 13.75 -0 L 13.75 -3.125 Q 12.7656 -1.51562 11.2969 -0.75 Q 9.84375 -0 7.71875 -0 Q 5.04688 -0 3.45312 -1.5 Q 1.875 -3 1.875 -5.51562 Q 1.875 -8.46875 3.84375 -9.95312 Q 5.8125 -11.4531 9.73438 -11.4531 L 13.75 -11.4531 L 13.75 -11.7188 Q 13.75 -13.5469 12.4531 -14.5469 Q 11.1562 -15.5469 8.79688 -15.5469 Q 7.29688 -15.5469 5.875 -15.2031 Q 4.46875 -14.875 3.15625 -14.2188 L 3.15625 -16.7656 Q 4.73438 -17.3906 6.20312 -17.6875 Q 7.6875 -18 9.09375 -18 Q 12.8906 -18 14.75 -16.0156 Q 16.625 -14.0469 16.625 -10.0312" id="BitstreamVeraSans-Roman-97" /><path d="M -0.125 -23 L 3.26562 -23 L 9.71875 -13.5469 L 16.1094 -23 L 19.5 -23 L 11.25 -10.9531 L 11.25 -0 L 8.125 -0 L 8.125 -10.9531 Z" id="BitstreamVeraSans-Roman-89" /><path d="M 10.1875 -20.5469 Q 7.71875 -20.5469 6.48438 -18.2812 Q 5.25 -16.0312 5.25 -11.4844 Q 5.25 -6.96875 6.48438 -4.70312 Q 7.71875 -2.45312 10.1875 -2.45312 Q 12.6562 -2.45312 13.8906 -4.70312 Q 15.125 -6.96875 15.125 -11.4844 Q 15.125 -16.0312 13.8906 -18.2812 Q 12.6562 -20.5469 10.1875 -20.5469 M 10.1875 -23 Q 14.1094 -23 16.1719 -20.0469 Q 18.25 -17.1094 18.25 -11.4844 Q 18.25 -5.89062 16.1719 -2.9375 Q 14.1094 -0 10.1875 -0 Q 6.26562 -0 4.1875 -2.9375 Q 2.125 -5.89062 2.125 -11.4844 Q 2.125 -17.1094 4.1875 -20.0469 Q 6.26562 -23 10.1875 -23" id="BitstreamVeraSans-Roman-48" /><path d="M 3.5 -23 L 15.9219 -23 L 15.9219 -20.5469 L 6.375 -20.5469 L 6.375 -15.5625 Q 7.0625 -15.7812 7.75 -15.8906 Q 8.4375 -16 9.14062 -16 Q 13.0469 -16 15.3281 -13.8438 Q 17.625 -11.6875 17.625 -8 Q 17.625 -4.20312 15.2656 -2.09375 Q 12.9219 -0 8.65625 -0 Q 7.1875 -0 5.65625 -0.234375 Q 4.125 -0.46875 2.5 -0.921875 L 2.5 -4.04688 Q 3.92188 -3.23438 5.42188 -2.84375 Q 6.9375 -2.45312 8.60938 -2.45312 Q 11.3281 -2.45312 12.9062 -3.9375 Q 14.5 -5.42188 14.5 -7.98438 Q 14.5 -10.5625 12.9062 -12.0469 Q 11.3281 -13.5469 8.60938 -13.5469 Q 7.34375 -13.5469 6.07812 -13.25 Q 4.8125 -12.9531 3.5 -12.3281 Z" id="BitstreamVeraSans-Roman-53" /><path d="M 4 -2.67188 L 9.125 -2.67188 L 9.125 -20.1719 L 3.5625 -19.0625 L 3.5625 -21.8906 L 9.09375 -23 L 12.25 -23 L 12.25 -2.67188 L 17.5 -2.67188 L 17.5 -0 L 4 -0 Z" id="BitstreamVeraSans-Roman-49" /><path d="M 6.17188 -2.45312 L 17.25 -2.45312 L 17.25 -0 L 2.375 -0 L 2.375 -2.45312 Q 4.17188 -4.26562 7.26562 -7.34375 Q 10.3594 -10.4219 11.1562 -11.3125 Q 12.6719 -12.9844 13.2656 -14.1406 Q 13.875 -15.2969 13.875 -16.4219 Q 13.875 -18.2344 12.5625 -19.3906 Q 11.2656 -20.5469 9.17188 -20.5469 Q 7.70312 -20.5469 6.04688 -20.0312 Q 4.40625 -19.5312 2.53125 -18.5 L 2.53125 -21.5781 Q 4.4375 -22.2812 6.07812 -22.6406 Q 7.73438 -23 9.09375 -23 Q 12.7031 -23 14.8438 -21.2344 Q 17 -19.4688 17 -16.5156 Q 17 -15.1094 16.4531 -13.8594 Q 15.9219 -12.6094 14.5156 -10.8906 Q 14.125 -10.4531 12.0312 -8.34375 Q 9.95312 -6.23438 6.17188 -2.45312" id="BitstreamVeraSans-Roman-50" /><path d="M 13 -12.875 Q 15.2344 -12.3906 16.4844 -10.875 Q 17.75 -9.375 17.75 -7.14062 Q 17.75 -3.73438 15.375 -1.85938 Q 13.0156 -0 8.65625 -0 Q 7.1875 -0 5.64062 -0.265625 Q 4.09375 -0.53125 2.4375 -1.0625 L 2.4375 -4.01562 Q 3.75 -3.25 5.29688 -2.84375 Q 6.85938 -2.45312 8.5625 -2.45312 Q 11.5312 -2.45312 13.0781 -3.64062 Q 14.625 -4.82812 14.625 -7.09375 Q 14.625 -9.17188 13.1875 -10.3594 Q 11.75 -11.5469 9.1875 -11.5469 L 6.46875 -11.5469 L 6.46875 -14 L 9.32812 -14 Q 11.6562 -14 12.8906 -14.8281 Q 14.125 -15.6562 14.125 -17.2188 Q 14.125 -18.8281 12.8438 -19.6875 Q 11.5781 -20.5469 9.20312 -20.5469 Q 7.89062 -20.5469 6.40625 -20.2969 Q 4.92188 -20.0469 3.14062 -19.5156 L 3.14062 -22.0781 Q 4.9375 -22.5312 6.5 -22.7656 Q 8.07812 -23 9.46875 -23 Q 13.0625 -23 15.1562 -21.5156 Q 17.25 -20.0312 17.25 -17.5156 Q 17.25 -15.75 16.1406 -14.5469 Q 15.0469 -13.3438 13 -12.875" id="BitstreamVeraSans-Roman-51" /><path d="M 12 -20.2812 L 4.0625 -8 L 12 -8 Z M 11.1719 -23 L 15.125 -23 L 15.125 -8 L 18.5 -8 L 18.5 -5.375 L 15.125 -5.375 L 15.125 -0 L 12 -0 L 12 -5.375 L 1.5 -5.375 L 1.5 -8.42188 Z" id="BitstreamVeraSans-Roman-52" /></defs><g fill="black" stroke="black" stroke-width="1"><g fill="black" stroke="none" transform="translate(464.219,47.375) scale(1.25)"><use x="0" xlink:href="#BitstreamVeraSans-Roman-83" /><use x="0" xlink:href="#BitstreamVeraSans-Roman-83" /><use x="20.3125" xlink:href="#BitstreamVeraSans-Roman-105" /><use x="20.3125" xlink:href="#BitstreamVeraSans-Roman-105" /><use x="29.2031" xlink:href="#BitstreamVeraSans-Roman-109" /><use x="29.2031" xlink:href="#BitstreamVeraSans-Roman-109" /><use x="60.375" xlink:href="#BitstreamVeraSans-Roman-112" /><use x="60.375" xlink:href="#BitstreamVeraSans-Roman-112" /><use x="80.6875" xlink:href="#BitstreamVeraSans-Roman-108" /><use x="80.6875" xlink:href="#BitstreamVeraSans-Roman-108" /><use x="89.5781" xlink:href="#BitstreamVeraSans-Roman-101" /><use x="89.5781" xlink:href="#BitstreamVeraSans-Roman-101" /><use x="109.266" xlink:href="#BitstreamVeraSans-Roman-32" /><use x="109.266" xlink:href="#BitstreamVeraSans-Roman-32" /><use x="119.438" xlink:href="#BitstreamVeraSans-Roman-112" /><use x="119.438" xlink:href="#BitstreamVeraSans-Roman-112" /><use x="139.75" xlink:href="#BitstreamVeraSans-Roman-108" /><use x="139.75" xlink:href="#BitstreamVeraSans-Roman-108" /><use x="148.641" xlink:href="#BitstreamVeraSans-Roman-111" /><use x="148.641" xlink:href="#BitstreamVeraSans-Roman-111" /><use x="168.219" xlink:href="#BitstreamVeraSans-Roman-116" /><use x="168.219" xlink:href="#BitstreamVeraSans-Roman-116" /></g><g fill="black" stroke="none" transform="translate(529.312,665.5)"><use x="0" xlink:href="#BitstreamVeraSans-Roman-88" /><use x="0" xlink:href="#BitstreamVeraSans-Roman-88" /><use x="21.9219" xlink:href="#BitstreamVeraSans-Roman-32" /><use x="21.9219" xlink:href="#BitstreamVeraSans-Roman-32" /><use x="32.0938" xlink:href="#BitstreamVeraSans-Roman-97" /><use x="32.0938" xlink:href="#BitstreamVeraSans-Roman-97" /><use x="51.7031" xlink:href="#BitstreamVeraSans-Roman-120" /><use x="51.7031" xlink:href="#BitstreamVeraSans-Roman-120" /><use x="70.6406" xlink:href="#BitstreamVeraSans-Roman-105" /><use x="70.6406" xlink:href="#BitstreamVeraSans-Roman-105" /><use x="79.5312" xlink:href="#BitstreamVeraSans-Roman-115" /><use x="79.5312" xlink:href="#BitstreamVeraSans-Roman-115" /></g><g fill="black" stroke="none" transform="translate(34,369.625) rotate(-9e+01)"><use x="0" xlink:href="#BitstreamVeraSans-Roman-89" /><use x="0" xlink:href="#BitstreamVeraSans-Roman-89" /><use x="19.5469" xlink:href="#BitstreamVeraSans-Roman-32" /><use x="19.5469" xlink:href="#BitstreamVeraSans-Roman-32" /><use x="29.7188" xlink:href="#BitstreamVeraSans-Roman-97" /><use x="29.7188" xlink:href="#BitstreamVeraSans-Roman-97" /><use x="49.3281" xlink:href="#BitstreamVeraSans-Roman-120" /><use x="49.3281" xlink:href="#BitstreamVeraSans-Roman-120" /><use x="68.2656" xlink:href="#BitstreamVeraSans-Roman-105" /><use x="68.2656" xlink:href="#BitstreamVeraSans-Roman-105" /><use x="77.1562" xlink:href="#BitstreamVeraSans-Roman-115" /><use x="77.1562" xlink:href="#BitstreamVeraSans-Roman-115" /></g><g transform="translate(91.125,73.5)"><rect fill="none" height="500" width="1000" x="0" y="0" /><path d="M 250,0 L 250,20 M 500,0 L 500,20 M 750,0 L 750,20" /><g stroke="none" transform="translate(-8.0625,539)"><use x="0" xlink:href="#BitstreamVeraSans-Roman-48" /><use x="0" xlink:href="#BitstreamVeraSans-Roman-48" /></g><g stroke="none" transform="translate(242.438,539)"><use x="0" xlink:href="#BitstreamVeraSans-Roman-53" /><use x="0" xlink:href="#BitstreamVeraSans-Roman-53" /></g><g stroke="none" transform="translate(482.469,539)"><use x="0" xlink:href="#BitstreamVeraSans-Roman-49" /><use x="0" xlink:href="#BitstreamVeraSans-Roman-49" /><use x="20.3594" xlink:href="#BitstreamVeraSans-Roman-48" /><use x="20.3594" xlink:href="#BitstreamVeraSans-Roman-48" /></g><g stroke="none" transform="translate(732.781,539)"><use x="0" xlink:href="#BitstreamVeraSans-Roman-49" /><use x="0" xlink:href="#BitstreamVeraSans-Roman-49" /><use x="20.3594" xlink:href="#BitstreamVeraSans-Roman-53" /><use x="20.3594" xlink:href="#BitstreamVeraSans-Roman-53" /></g><g stroke="none" transform="translate(981.875,539)"><use x="0" xlink:href="#BitstreamVeraSans-Roman-50" /><use x="0" xlink:href="#BitstreamVeraSans-Roman-50" /><use x="20.3594" xlink:href="#BitstreamVeraSans-Roman-48" /><use x="20.3594" xlink:href="#BitstreamVeraSans-Roman-48" /></g><path d="M 250,500 L 250,480 M 500,500 L 500,480 M 750,500 L 750,480" /><g stroke="none" transform="translate(-26.125,511.5)"><use x="0" xlink:href="#BitstreamVeraSans-Roman-48" /><use x="0" xlink:href="#BitstreamVeraSans-Roman-48" /></g><g stroke="none" transform="translate(-45.0625,411.5)"><use x="0" xlink:href="#BitstreamVeraSans-Roman-49" /><use x="0" xlink:href="#BitstreamVeraSans-Roman-49" /><use x="20.3594" xlink:href="#BitstreamVeraSans-Roman-48" /><use x="20.3594" xlink:href="#BitstreamVeraSans-Roman-48" /></g><g stroke="none" transform="translate(-46.25,311.5)"><use x="0" xlink:href="#BitstreamVeraSans-Roman-50" /><use x="0" xlink:href="#BitstreamVeraSans-Roman-50" /><use x="20.3594" xlink:href="#BitstreamVeraSans-Roman-48" /><use x="20.3594" xlink:href="#BitstreamVeraSans-Roman-48" /></g><g stroke="none" transform="translate(-46.1875,211.5)"><use x="0" xlink:href="#BitstreamVeraSans-Roman-51" /><use x="0" xlink:href="#BitstreamVeraSans-Roman-51" /><use x="20.3594" xlink:href="#BitstreamVeraSans-Roman-48" /><use x="20.3594" xlink:href="#BitstreamVeraSans-Roman-48" /></g><g stroke="none" transform="translate(-47.125,111.5)"><use x="0" xlink:href="#BitstreamVeraSans-Roman-52" /><use x="0" xlink:href="#BitstreamVeraSans-Roman-52" /><use x="20.3594" xlink:href="#BitstreamVeraSans-Roman-48" /><use x="20.3594" xlink:href="#BitstreamVeraSans-Roman-48" /></g><g stroke="none" transform="translate(-46.125,11.5)"><use x="0" xlink:href="#BitstreamVeraSans-Roman-53" /><use x="0" xlink:href="#BitstreamVeraSans-Roman-53" /><use x="20.3594" xlink:href="#BitstreamVeraSans-Roman-48" /><use x="20.3594" xlink:href="#BitstreamVeraSans-Roman-48" /></g><path d="M 0,400 L 20,400 M 0,300 L 20,300 M 0,200 L 20,200 M 0,100 L 20,100 M 0,450 L 10,450 M 0,350 L 10,350 M 0,250 L 10,250 M 0,150 L 10,150 M 0,50 L 10,50" /><path d="M 1000,400 L 980,400 M 1000,300 L 980,300 M 1000,200 L 980,200 M 1000,100 L 980,100 M 1000,450 L 990,450 M 1000,350 L 990,350 M 1000,250 L 990,250 M 1000,150 L 990,150 M 1000,50 L 990,50" /><path d="M 20,400 L 980,400 M 20,300 L 980,300 M 20,200 L 980,200 M 20,100 L 980,100 M 250,20 L 250,480 M 500,20 L 500,480 M 750,20 L 750,480" stroke-dasharray="2 5" /><path d="M 0,500 L 500,0 L 1000,250" fill="none" stroke="red" /><path d="M 0,400 L 500,250 L 1000,0" fill="none" stroke="blue" stroke-dasharray="5 5" stroke-width="3" /></g></g></svg>