<?xml version="1.0" standalone="no"?>
<!DOCTYPE svg PUBLIC "-//W3C//DTD SVG 1.1//EN" 
  "http://www.w3.org/Graphics/SVG/1.1/DTD/svg11.dtd"><svg height="150" version="1.1" width="150" xmlns="http://www.w3.org/2000/svg" xmlns:svg="http://www.w3.org/2000/svg" xmlns:xlink="http://www.w3.org/1999/xlink"><defs /><g stroke="black" transform="translate(75,75)"><line x1="0" x2="0.0" y1="0" y2="70.0" /><line x1="0" x2="35.0" y1="0" y2="60.6217782649" /><line x1="0" x2="60.6217782649" y1="0" y2="35.0" /><line x1="0" x2="70.0" y1="0" y2="4.28626379702e-15" /><line x1="0" x2="60.6217782649" y1="0" y2="-35.0" /><line x1="0" x2="35.0" y1="0" y2="-60.6217782649" /><line x1="0" x2="8.57252759403e-15" y1="0" y2="-70.0" /><line x1="0" x2="-35.0" y1="0" y2="-60.6217782649" /><line x1="0" x2="-60.6217782649" y1="0" y2="-35.0" /><line x1="0" x2="-70.0" y1="0" y2="-1.2858791391e-14" /><line x1="0" x2="-60.6217782649" y1="0" y2="35.0" /><line x1="0" x2="-35.0" y1="0" y2="60.6217782649" /><line x1="0" x2="-1.71450551881e-14" y1="0" y2="70.0" /></g></svg>