<?xml version="1.0" standalone="no"?>
<!DOCTYPE svg PUBLIC "-//W3C//DTD SVG 1.1//EN" 
  "http://www.w3.org/Graphics/SVG/1.1/DTD/svg11.dtd"><svg height="566.25" version="1.1" width="520" xmlns="http://www.w3.org/2000/svg" xmlns:svg="http://www.w3.org/2000/svg" xmlns:xlink="http://www.w3.org/1999/xlink"><defs><path d="" id="BitstreamVeraSans-Roman-32" /><path d="M 13.5 -8.01562 L 13.5 -7 L 3.65625 -7 Q 3.65625 -4.51562 4.85938 -3.20312 Q 6.07812 -1.90625 8.23438 -1.90625 Q 9.5 -1.90625 10.6719 -2.25 Q 11.8438 -2.59375 13 -3.26562 L 13 -1.04688 Q 11.8438 -0.53125 10.625 -0.265625 Q 9.42188 -0 8.17188 -0 Q 5.03125 -0 3.20312 -1.85938 Q 1.375 -3.71875 1.375 -6.89062 Q 1.375 -10.1562 3.10938 -12.0781 Q 4.84375 -14 7.78125 -14 Q 10.4219 -14 11.9531 -12.3906 Q 13.5 -10.7812 13.5 -8.01562 M 11.375 -8.90625 Q 11.375 -10.3594 10.3906 -11.2188 Q 9.42188 -12.0938 7.8125 -12.0938 Q 6 -12.0938 4.90625 -11.25 Q 3.8125 -10.4219 3.65625 -8.90625 Z" id="BitstreamVeraSans-Roman-101" /><path d="M 7.39062 -12.0938 Q 5.65625 -12.0938 4.65625 -10.7344 Q 3.65625 -9.375 3.65625 -7 Q 3.65625 -4.64062 4.65625 -3.26562 Q 5.65625 -1.90625 7.39062 -1.90625 Q 9.10938 -1.90625 10.1094 -3.28125 Q 11.125 -4.65625 11.125 -7 Q 11.125 -9.34375 10.1094 -10.7188 Q 9.10938 -12.0938 7.39062 -12.0938 M 7.39062 -14 Q 10.1875 -14 11.7969 -12.1406 Q 13.4062 -10.2812 13.4062 -7 Q 13.4062 -3.73438 11.7969 -1.85938 Q 10.1875 -0 7.39062 -0 Q 4.5625 -0 2.96875 -1.85938 Q 1.375 -3.73438 1.375 -7 Q 1.375 -10.2812 2.96875 -12.1406 Q 4.5625 -14 7.39062 -14" id="BitstreamVeraSans-Roman-111" /><path d="M 12.9375 -17.1094 L 12.9375 -14.8281 Q 11.5781 -15.4688 10.375 -15.7812 Q 9.17188 -16.0938 8.0625 -16.0938 Q 6.10938 -16.0938 5.04688 -15.3438 Q 4 -14.6094 4 -13.2188 Q 4 -12.0781 4.70312 -11.4844 Q 5.40625 -10.9062 7.35938 -10.5469 L 8.79688 -10.25 Q 11.4688 -9.76562 12.7344 -8.5 Q 14 -7.23438 14 -5.125 Q 14 -2.59375 12.2812 -1.29688 Q 10.5781 -0 7.26562 -0 Q 6.01562 -0 4.60938 -0.28125 Q 3.20312 -0.5625 1.70312 -1.10938 L 1.70312 -3.51562 Q 3.14062 -2.71875 4.53125 -2.3125 Q 5.92188 -1.90625 7.25 -1.90625 Q 9.29688 -1.90625 10.3906 -2.70312 Q 11.5 -3.5 11.5 -4.95312 Q 11.5 -6.23438 10.7031 -6.95312 Q 9.90625 -7.67188 8.10938 -8.03125 L 6.65625 -8.3125 Q 4 -8.82812 2.8125 -9.9375 Q 1.625 -11.0625 1.625 -13.0469 Q 1.625 -15.3594 3.26562 -16.6719 Q 4.90625 -18 7.79688 -18 Q 9.03125 -18 10.3125 -17.7656 Q 11.5938 -17.5469 12.9375 -17.1094" id="BitstreamVeraSans-Roman-83" /><path d="M 4.375 -17.5 L 4.375 -14 L 8.875 -14 L 8.875 -12.0938 L 4.375 -12.0938 L 4.375 -4.54688 Q 4.375 -2.84375 4.8125 -2.35938 Q 5.26562 -1.875 6.625 -1.875 L 8.875 -1.875 L 8.875 -0 L 6.65625 -0 Q 4.15625 -0 3.20312 -0.984375 Q 2.25 -1.96875 2.25 -4.5625 L 2.25 -12.0938 L 0.625 -12.0938 L 0.625 -14 L 2.25 -14 L 2.25 -17.5 Z" id="BitstreamVeraSans-Roman-116" /><path d="M 2.25 -14 L 4.375 -14 L 4.375 -0 L 2.25 -0 Z M 2.25 -19 L 4.375 -19 L 4.375 -16.1562 L 2.25 -16.1562 Z" id="BitstreamVeraSans-Roman-105" /><path d="M 2.25 -19 L 4.375 -19 L 4.375 -0 L 2.25 -0 Z" id="BitstreamVeraSans-Roman-108" /><path d="M 12.3906 -11.0938 Q 13.2031 -12.5781 14.3281 -13.2812 Q 15.4531 -14 16.9688 -14 Q 19.0312 -14 20.1406 -12.5 Q 21.25 -11.0156 21.25 -8.25 L 21.25 -0 L 19.125 -0 L 19.125 -8.21875 Q 19.125 -10.1875 18.4531 -11.1406 Q 17.7812 -12.0938 16.4062 -12.0938 Q 14.7031 -12.0938 13.7188 -10.9219 Q 12.75 -9.76562 12.75 -7.76562 L 12.75 -0 L 10.625 -0 L 10.625 -8.21875 Q 10.625 -10.2031 9.95312 -11.1406 Q 9.28125 -12.0938 7.875 -12.0938 Q 6.20312 -12.0938 5.21875 -10.9219 Q 4.25 -9.75 4.25 -7.76562 L 4.25 -0 L 2.125 -0 L 2.125 -14 L 4.25 -14 L 4.25 -11.5938 Q 4.98438 -12.8281 6.01562 -13.4062 Q 7.0625 -14 8.46875 -14 Q 9.90625 -14 10.9062 -13.25 Q 11.9219 -12.5156 12.3906 -11.0938" id="BitstreamVeraSans-Roman-109" /><path d="M 4.25 -2.40625 L 4.25 5 L 2.125 5 L 2.125 -14 L 4.25 -14 L 4.25 -11.5938 Q 4.9375 -12.8125 5.96875 -13.4062 Q 7.01562 -14 8.46875 -14 Q 10.875 -14 12.375 -12.0625 Q 13.875 -10.1406 13.875 -7 Q 13.875 -3.875 12.375 -1.9375 Q 10.875 -0 8.46875 -0 Q 7.01562 -0 5.96875 -0.59375 Q 4.9375 -1.1875 4.25 -2.40625 M 11.6094 -7 Q 11.6094 -9.375 10.625 -10.7344 Q 9.64062 -12.0938 7.92188 -12.0938 Q 6.21875 -12.0938 5.23438 -10.7344 Q 4.25 -9.375 4.25 -7 Q 4.25 -4.60938 5.23438 -3.25 Q 6.21875 -1.90625 7.92188 -1.90625 Q 9.64062 -1.90625 10.625 -3.25 Q 11.6094 -4.60938 11.6094 -7" id="BitstreamVeraSans-Roman-112" /><path d="M 10.6562 -13.25 L 10.6562 -11.1562 Q 9.73438 -11.625 8.75 -11.8594 Q 7.76562 -12.0938 6.71875 -12.0938 Q 5.10938 -12.0938 4.29688 -11.5938 Q 3.5 -11.0938 3.5 -10.1094 Q 3.5 -9.35938 4.07812 -8.92188 Q 4.65625 -8.48438 6.39062 -8.09375 L 7.14062 -7.9375 Q 9.4375 -7.4375 10.4062 -6.53125 Q 11.375 -5.625 11.375 -4 Q 11.375 -2.17188 9.92188 -1.07812 Q 8.46875 -0 5.9375 -0 Q 4.875 -0 3.71875 -0.21875 Q 2.57812 -0.4375 1.3125 -0.859375 L 1.3125 -3.15625 Q 2.5 -2.53125 3.65625 -2.21875 Q 4.8125 -1.90625 5.95312 -1.90625 Q 7.46875 -1.90625 8.28125 -2.42188 Q 9.10938 -2.95312 9.10938 -3.92188 Q 9.10938 -4.79688 8.51562 -5.26562 Q 7.92188 -5.75 5.90625 -6.1875 L 5.15625 -6.35938 Q 3.15625 -6.78125 2.26562 -7.67188 Q 1.375 -8.5625 1.375 -10.0938 Q 1.375 -11.9688 2.6875 -12.9844 Q 4.01562 -14 6.4375 -14 Q 7.64062 -14 8.70312 -13.8125 Q 9.76562 -13.6406 10.6562 -13.25" id="BitstreamVeraSans-Roman-115" /><path d="M 4.75 -16.0938 L 4.75 -9 L 7.70312 -9 Q 9.34375 -9 10.2344 -9.92188 Q 11.125 -10.8438 11.125 -12.5469 Q 11.125 -14.25 10.2344 -15.1719 Q 9.34375 -16.0938 7.70312 -16.0938 Z M 2.375 -18 L 7.70312 -18 Q 10.625 -18 12.125 -16.6094 Q 13.625 -15.2188 13.625 -12.5469 Q 13.625 -9.84375 12.125 -8.46875 Q 10.625 -7.09375 7.70312 -7.09375 L 4.75 -7.09375 L 4.75 -0 L 2.375 -0 Z" id="BitstreamVeraSans-Roman-80" /><path d="M 13.125 -8.25 L 13.125 -0 L 11 -0 L 11 -8.21875 Q 11 -10.1719 10.2656 -11.125 Q 9.53125 -12.0938 8.0625 -12.0938 Q 6.29688 -12.0938 5.26562 -10.9219 Q 4.25 -9.76562 4.25 -7.76562 L 4.25 -0 L 2.125 -0 L 2.125 -14 L 4.25 -14 L 4.25 -11.5938 Q 5.03125 -12.7969 6.07812 -13.3906 Q 7.14062 -14 8.51562 -14 Q 10.7969 -14 11.9531 -12.5469 Q 13.125 -11.0938 13.125 -8.25" id="BitstreamVeraSans-Roman-110" /><path d="M 8.32812 -7.09375 Q 5.67188 -7.09375 4.64062 -6.48438 Q 3.625 -5.875 3.625 -4.42188 Q 3.625 -3.26562 4.39062 -2.57812 Q 5.15625 -1.90625 6.48438 -1.90625 Q 8.29688 -1.90625 9.39062 -3.1875 Q 10.5 -4.46875 10.5 -6.60938 L 10.5 -7.09375 Z M 12.625 -7.79688 L 12.625 -0 L 10.5 -0 L 10.5 -2.4375 Q 9.75 -1.1875 8.64062 -0.59375 Q 7.53125 -0 5.9375 -0 Q 3.90625 -0 2.70312 -1.17188 Q 1.5 -2.35938 1.5 -4.34375 Q 1.5 -6.65625 2.98438 -7.82812 Q 4.48438 -9 7.45312 -9 L 10.5 -9 L 10.5 -9.20312 Q 10.5 -10.5938 9.5 -11.3438 Q 8.51562 -12.0938 6.73438 -12.0938 Q 5.59375 -12.0938 4.51562 -11.8438 Q 3.4375 -11.5938 2.45312 -11.0938 L 2.45312 -13.0469 Q 3.64062 -13.5312 4.75 -13.7656 Q 5.875 -14 6.9375 -14 Q 9.79688 -14 11.2031 -12.4531 Q 12.625 -10.9219 12.625 -7.79688" id="BitstreamVeraSans-Roman-97" /><path d="M 4.75 -9 L 4.75 -1.90625 L 8.53125 -1.90625 Q 10.4219 -1.90625 11.3281 -2.78125 Q 12.25 -3.65625 12.25 -5.46875 Q 12.25 -7.26562 11.3281 -8.125 Q 10.4219 -9 8.53125 -9 Z M 4.75 -16.0938 L 4.75 -10.9062 L 8.21875 -10.9062 Q 9.9375 -10.9062 10.7812 -11.5469 Q 11.625 -12.1875 11.625 -13.5 Q 11.625 -14.7969 10.7812 -15.4375 Q 9.9375 -16.0938 8.21875 -16.0938 Z M 2.375 -18 L 8.39062 -18 Q 11.0938 -18 12.5469 -16.8906 Q 14 -15.7812 14 -13.7344 Q 14 -12.1562 13.25 -11.2188 Q 12.5 -10.2969 11.0625 -10.0625 Q 12.8125 -9.65625 13.7812 -8.39062 Q 14.75 -7.125 14.75 -5.23438 Q 14.75 -2.71875 13.1562 -1.35938 Q 11.5781 -0 8.64062 -0 L 2.375 -0 Z" id="BitstreamVeraSans-Roman-66" /><path d="M 15.5 -16.375 L 15.5 -13.8906 Q 14.2969 -15 12.9375 -15.5469 Q 11.5938 -16.0938 10.0625 -16.0938 Q 7.0625 -16.0938 5.46875 -14.2656 Q 3.875 -12.4375 3.875 -9 Q 3.875 -5.5625 5.46875 -3.73438 Q 7.0625 -1.90625 10.0625 -1.90625 Q 11.5938 -1.90625 12.9375 -2.45312 Q 14.2969 -3.01562 15.5 -4.10938 L 15.5 -1.65625 Q 14.25 -0.828125 12.8594 -0.40625 Q 11.4844 -0 9.92188 -0 Q 5.95312 -0 3.65625 -2.40625 Q 1.375 -4.82812 1.375 -9 Q 1.375 -13.1719 3.65625 -15.5781 Q 5.95312 -18 9.92188 -18 Q 11.5 -18 12.8906 -17.5938 Q 14.2812 -17.1875 15.5 -16.375" id="BitstreamVeraSans-Roman-67" /><path d="M 9.8125 -11.6562 Q 9.45312 -11.8906 9.01562 -11.9844 Q 8.57812 -12.0938 8.0625 -12.0938 Q 6.21875 -12.0938 5.23438 -10.8438 Q 4.25 -9.59375 4.25 -7.26562 L 4.25 -0 L 2.125 -0 L 2.125 -14 L 4.25 -14 L 4.25 -11.6406 Q 4.9375 -12.8438 6.03125 -13.4219 Q 7.14062 -14 8.71875 -14 Q 8.9375 -14 9.20312 -14 Q 9.48438 -14 9.8125 -14 Z" id="BitstreamVeraSans-Roman-114" /></defs><g fill="black" stroke="black" stroke-width="1"><g fill="black" stroke="none" transform="translate(147.969,36.875) scale(1.25)"><use x="0" xlink:href="#BitstreamVeraSans-Roman-83" /><use x="0" xlink:href="#BitstreamVeraSans-Roman-83" /><use x="15.2344" xlink:href="#BitstreamVeraSans-Roman-105" /><use x="15.2344" xlink:href="#BitstreamVeraSans-Roman-105" /><use x="21.9023" xlink:href="#BitstreamVeraSans-Roman-109" /><use x="21.9023" xlink:href="#BitstreamVeraSans-Roman-109" /><use x="45.2812" xlink:href="#BitstreamVeraSans-Roman-112" /><use x="45.2812" xlink:href="#BitstreamVeraSans-Roman-112" /><use x="60.5156" xlink:href="#BitstreamVeraSans-Roman-108" /><use x="60.5156" xlink:href="#BitstreamVeraSans-Roman-108" /><use x="67.1836" xlink:href="#BitstreamVeraSans-Roman-101" /><use x="67.1836" xlink:href="#BitstreamVeraSans-Roman-101" /><use x="81.9492" xlink:href="#BitstreamVeraSans-Roman-32" /><use x="81.9492" xlink:href="#BitstreamVeraSans-Roman-32" /><use x="89.5781" xlink:href="#BitstreamVeraSans-Roman-112" /><use x="89.5781" xlink:href="#BitstreamVeraSans-Roman-112" /><use x="104.812" xlink:href="#BitstreamVeraSans-Roman-105" /><use x="104.812" xlink:href="#BitstreamVeraSans-Roman-105" /><use x="111.48" xlink:href="#BitstreamVeraSans-Roman-101" /><use x="111.48" xlink:href="#BitstreamVeraSans-Roman-101" /><use x="126.246" xlink:href="#BitstreamVeraSans-Roman-32" /><use x="126.246" xlink:href="#BitstreamVeraSans-Roman-32" /><use x="133.875" xlink:href="#BitstreamVeraSans-Roman-112" /><use x="133.875" xlink:href="#BitstreamVeraSans-Roman-112" /><use x="149.109" xlink:href="#BitstreamVeraSans-Roman-108" /><use x="149.109" xlink:href="#BitstreamVeraSans-Roman-108" /><use x="155.777" xlink:href="#BitstreamVeraSans-Roman-111" /><use x="155.777" xlink:href="#BitstreamVeraSans-Roman-111" /><use x="170.461" xlink:href="#BitstreamVeraSans-Roman-116" /><use x="170.461" xlink:href="#BitstreamVeraSans-Roman-116" /></g><g fill="black" stroke="black" stroke-width="1" transform="translate(10,56.25)"><path d="M250,250 l250,0 A250,250 0 1,1 73.2233,73.2233 z" fill="#476fb2" stroke="white" stroke-linejoin="round" stroke-width="2" /><g fill="black" stroke="none" transform="translate(164.79,374.985)"><use x="0" xlink:href="#BitstreamVeraSans-Roman-80" /><use x="0" xlink:href="#BitstreamVeraSans-Roman-80" /><use x="14.4727" xlink:href="#BitstreamVeraSans-Roman-108" /><use x="14.4727" xlink:href="#BitstreamVeraSans-Roman-108" /><use x="21.1406" xlink:href="#BitstreamVeraSans-Roman-97" /><use x="21.1406" xlink:href="#BitstreamVeraSans-Roman-97" /><use x="35.8477" xlink:href="#BitstreamVeraSans-Roman-110" /><use x="35.8477" xlink:href="#BitstreamVeraSans-Roman-110" /><use x="51.0586" xlink:href="#BitstreamVeraSans-Roman-101" /><use x="51.0586" xlink:href="#BitstreamVeraSans-Roman-101" /><use x="65.8242" xlink:href="#BitstreamVeraSans-Roman-115" /><use x="65.8242" xlink:href="#BitstreamVeraSans-Roman-115" /></g><path d="M250,250 l-176.777,-176.777 A250,250 0 0,1 480.97,154.329 z" fill="#be2c2b" stroke="white" stroke-linejoin="round" stroke-width="2" /><g fill="black" stroke="none" transform="translate(242.136,136.402)"><use x="0" xlink:href="#BitstreamVeraSans-Roman-66" /><use x="0" xlink:href="#BitstreamVeraSans-Roman-66" /><use x="16.4648" xlink:href="#BitstreamVeraSans-Roman-111" /><use x="16.4648" xlink:href="#BitstreamVeraSans-Roman-111" /><use x="31.1484" xlink:href="#BitstreamVeraSans-Roman-97" /><use x="31.1484" xlink:href="#BitstreamVeraSans-Roman-97" /><use x="45.8555" xlink:href="#BitstreamVeraSans-Roman-116" /><use x="45.8555" xlink:href="#BitstreamVeraSans-Roman-116" /><use x="55.2656" xlink:href="#BitstreamVeraSans-Roman-115" /><use x="55.2656" xlink:href="#BitstreamVeraSans-Roman-115" /></g><path d="M250,250 l230.97,-95.6709 A250,250 0 0,1 500,250 z" fill="#85b730" stroke="white" stroke-linejoin="round" stroke-width="2" /><g fill="black" stroke="none" transform="translate(346.911,234.614)"><use x="0" xlink:href="#BitstreamVeraSans-Roman-67" /><use x="0" xlink:href="#BitstreamVeraSans-Roman-67" /><use x="16.7578" xlink:href="#BitstreamVeraSans-Roman-97" /><use x="16.7578" xlink:href="#BitstreamVeraSans-Roman-97" /><use x="31.4648" xlink:href="#BitstreamVeraSans-Roman-114" /><use x="31.4648" xlink:href="#BitstreamVeraSans-Roman-114" /><use x="41.332" xlink:href="#BitstreamVeraSans-Roman-115" /><use x="41.332" xlink:href="#BitstreamVeraSans-Roman-115" /></g></g></g></svg>