<?xml version="1.0" standalone="no"?>
<!DOCTYPE svg PUBLIC "-//W3C//DTD SVG 1.1//EN" 
  "http://www.w3.org/Graphics/SVG/1.1/DTD/svg11.dtd"><svg height="184.0" version="1.1" width="1000" xmlns="http://www.w3.org/2000/svg" xmlns:svg="http://www.w3.org/2000/svg" xmlns:xlink="http://www.w3.org/1999/xlink"><defs><path d="M 6.3125 -5.54688 Q 6.71875 -6.28125 7.28125 -6.64062 Q 7.84375 -7 8.59375 -7 Q 9.625 -7 10.1719 -6.25 Q 10.7344 -5.5 10.7344 -4.125 L 10.7344 -0 L 9.60938 -0 L 9.60938 -4.10938 Q 9.60938 -5.09375 9.28125 -5.5625 Q 8.95312 -6.04688 8.28125 -6.04688 Q 7.45312 -6.04688 6.96875 -5.45312 Q 6.5 -4.875 6.5 -3.875 L 6.5 -0 L 5.35938 -0 L 5.35938 -4.10938 Q 5.35938 -5.09375 5.03125 -5.5625 Q 4.70312 -6.04688 4.03125 -6.04688 Q 3.21875 -6.04688 2.73438 -5.45312 Q 2.26562 -4.875 2.26562 -3.875 L 2.26562 -0 L 1.125 -0 L 1.125 -7 L 2.26562 -7 L 2.26562 -5.79688 Q 2.625 -6.40625 3.14062 -6.70312 Q 3.65625 -7 4.35938 -7 Q 5.07812 -7 5.57812 -6.625 Q 6.07812 -6.26562 6.3125 -5.54688" id="BitstreamVeraSans-Roman-109" /><path d="M 6.75 -3.59375 L 6.75 -3.03125 L 1.76562 -3.03125 Q 1.76562 -2 2.375 -1.46875 Q 2.98438 -0.953125 4.07812 -0.953125 Q 4.71875 -0.953125 5.3125 -1.09375 Q 5.90625 -1.23438 6.48438 -1.51562 L 6.48438 -0.53125 Q 5.90625 -0.28125 5.28125 -0.140625 Q 4.67188 -0 4.04688 -0 Q 2.46875 -0 1.54688 -0.921875 Q 0.625 -1.85938 0.625 -3.4375 Q 0.625 -5.07812 1.5 -6.03125 Q 2.375 -7 3.85938 -7 Q 5.20312 -7 5.96875 -6.07812 Q 6.75 -5.15625 6.75 -3.59375 M 5.60938 -3.96875 Q 5.60938 -4.92188 5.125 -5.48438 Q 4.64062 -6.04688 3.84375 -6.04688 Q 2.9375 -6.04688 2.39062 -5.5 Q 1.84375 -4.95312 1.76562 -3.96875 Z" id="BitstreamVeraSans-Roman-101" /><path d="M 4.1875 -3.03125 Q 2.89062 -3.03125 2.39062 -2.78125 Q 1.89062 -2.54688 1.89062 -1.96875 Q 1.89062 -1.5 2.26562 -1.21875 Q 2.64062 -0.953125 3.28125 -0.953125 Q 4.17188 -0.953125 4.70312 -1.46875 Q 5.25 -1.98438 5.25 -2.84375 L 5.25 -3.03125 Z M 6.39062 -3.90625 L 6.39062 -0 L 5.25 -0 L 5.25 -1.17188 Q 4.875 -0.578125 4.3125 -0.28125 Q 3.76562 -0 2.96875 -0 Q 1.95312 -0 1.34375 -0.515625 Q 0.75 -1.03125 0.75 -1.90625 Q 0.75 -2.9375 1.5 -3.45312 Q 2.25 -3.96875 3.73438 -3.96875 L 5.25 -3.96875 L 5.25 -4.09375 Q 5.25 -5.03125 4.75 -5.53125 Q 4.26562 -6.04688 3.39062 -6.04688 Q 2.8125 -6.04688 2.28125 -5.875 Q 1.75 -5.70312 1.25 -5.375 L 1.25 -6.51562 Q 1.85938 -6.76562 2.42188 -6.875 Q 2.98438 -7 3.51562 -7 Q 4.96875 -7 5.67188 -6.23438 Q 6.39062 -5.46875 6.39062 -3.90625" id="BitstreamVeraSans-Roman-97" /><path d="M 1.125 -9 L 2.70312 -9 L 6.60938 -1.46875 L 6.60938 -9 L 7.75 -9 L 7.75 -0 L 6.17188 -0 L 2.26562 -7.53125 L 2.26562 -0 L 1.125 -0 Z" id="BitstreamVeraSans-Roman-78" /><path d="M 2.26562 -9 L 2.26562 -7 L 4.48438 -7 L 4.48438 -6.04688 L 2.26562 -6.04688 L 2.26562 -2.26562 Q 2.26562 -1.42188 2.48438 -1.17188 Q 2.70312 -0.9375 3.375 -0.9375 L 4.48438 -0.9375 L 4.48438 -0 L 3.35938 -0 Q 2.09375 -0 1.60938 -0.484375 Q 1.125 -0.984375 1.125 -2.28125 L 1.125 -6.04688 L 0.328125 -6.04688 L 0.328125 -7 L 1.125 -7 L 1.125 -9 Z" id="BitstreamVeraSans-Roman-116" /><path d="" id="BitstreamVeraSans-Roman-32" /><path d="M 1.125 -9 L 2.26562 -9 L 2.26562 -0 L 1.125 -0 Z" id="BitstreamVeraSans-Roman-73" /><path d="M 1.5 -1.03125 L 3.48438 -1.03125 L 3.48438 -7.89062 L 1.32812 -7.45312 L 1.32812 -8.5625 L 3.48438 -9 L 4.625 -9 L 4.625 -1.03125 L 6.5 -1.03125 L 6.5 -0 L 1.5 -0 Z" id="BitstreamVeraSans-Roman-49" /><path d="M 2.3125 -0.953125 L 6.375 -0.953125 L 6.375 -0 L 0.875 -0 L 0.875 -0.953125 Q 1.5625 -1.67188 2.73438 -2.875 Q 3.90625 -4.09375 4.20312 -4.4375 Q 4.78125 -5.09375 5 -5.54688 Q 5.23438 -6 5.23438 -6.4375 Q 5.23438 -7.15625 4.73438 -7.59375 Q 4.25 -8.04688 3.45312 -8.04688 Q 2.89062 -8.04688 2.26562 -7.84375 Q 1.64062 -7.65625 0.9375 -7.25 L 0.9375 -8.4375 Q 1.64062 -8.71875 2.26562 -8.85938 Q 2.89062 -9 3.40625 -9 Q 4.76562 -9 5.5625 -8.29688 Q 6.375 -7.60938 6.375 -6.45312 Q 6.375 -5.90625 6.17188 -5.42188 Q 5.96875 -4.9375 5.4375 -4.26562 Q 5.29688 -4.09375 4.51562 -3.26562 Q 3.73438 -2.45312 2.3125 -0.953125" id="BitstreamVeraSans-Roman-50" /><path d="M 4.82812 -5.54688 Q 5.67188 -5.32812 6.14062 -4.67188 Q 6.625 -4.03125 6.625 -3.07812 Q 6.625 -1.59375 5.73438 -0.796875 Q 4.84375 -0 3.20312 -0 Q 2.65625 -0 2.0625 -0.09375 Q 1.48438 -0.203125 0.859375 -0.421875 L 0.859375 -1.65625 Q 1.35938 -1.3125 1.95312 -1.125 Q 2.54688 -0.953125 3.1875 -0.953125 Q 4.3125 -0.953125 4.89062 -1.48438 Q 5.48438 -2.03125 5.48438 -3.04688 Q 5.48438 -3.96875 4.9375 -4.5 Q 4.39062 -5.03125 3.40625 -5.03125 L 2.375 -5.03125 L 2.375 -5.96875 L 3.45312 -5.96875 Q 4.32812 -5.96875 4.78125 -6.23438 Q 5.25 -6.5 5.25 -6.98438 Q 5.25 -7.5 4.76562 -7.76562 Q 4.29688 -8.04688 3.40625 -8.04688 Q 2.90625 -8.04688 2.34375 -7.95312 Q 1.79688 -7.875 1.125 -7.71875 L 1.125 -8.64062 Q 1.79688 -8.8125 2.375 -8.90625 Q 2.96875 -9 3.48438 -9 Q 4.82812 -9 5.60938 -8.48438 Q 6.39062 -7.98438 6.39062 -7.125 Q 6.39062 -6.53125 5.98438 -6.10938 Q 5.57812 -5.70312 4.82812 -5.54688" id="BitstreamVeraSans-Roman-51" /><path d="M 4.5 -7.89062 L 1.51562 -2.90625 L 4.5 -2.90625 Z M 4.1875 -9 L 5.64062 -9 L 5.64062 -2.90625 L 6.89062 -2.90625 L 6.89062 -1.90625 L 5.64062 -1.90625 L 5.64062 -0 L 4.5 -0 L 4.5 -1.90625 L 0.5625 -1.90625 L 0.5625 -3.07812 Z" id="BitstreamVeraSans-Roman-52" /><path d="M 1 -2.875 L 1 -7 L 2.14062 -7 L 2.14062 -2.89062 Q 2.14062 -1.92188 2.48438 -1.4375 Q 2.84375 -0.953125 3.54688 -0.953125 Q 4.39062 -0.953125 4.875 -1.53125 Q 5.375 -2.10938 5.375 -3.10938 L 5.375 -7 L 6.51562 -7 L 6.51562 -0 L 5.375 -0 L 5.375 -1.20312 Q 4.98438 -0.59375 4.46875 -0.296875 Q 3.95312 -0 3.28125 -0 Q 2.15625 -0 1.57812 -0.71875 Q 1 -1.45312 1 -2.875" id="BitstreamVeraSans-Roman-117" /><path d="M 5.01562 -5.82812 Q 4.84375 -5.9375 4.625 -5.98438 Q 4.40625 -6.04688 4.15625 -6.04688 Q 3.23438 -6.04688 2.75 -5.42188 Q 2.26562 -4.79688 2.26562 -3.64062 L 2.26562 -0 L 1.125 -0 L 1.125 -7 L 2.26562 -7 L 2.26562 -5.8125 Q 2.60938 -6.40625 3.14062 -6.70312 Q 3.6875 -7 4.46875 -7 Q 4.57812 -7 4.71875 -7.01562 Q 4.85938 -7.04688 5.01562 -7.09375 Z" id="BitstreamVeraSans-Roman-114" /><path d="M 1.125 -7 L 2.26562 -7 L 2.26562 -0 L 1.125 -0 Z M 1.125 -10 L 2.26562 -10 L 2.26562 -9.04688 L 1.125 -9.04688 Z" id="BitstreamVeraSans-Roman-105" /><path d="M 2.26562 -8.04688 L 2.26562 -0.953125 L 3.71875 -0.953125 Q 5.54688 -0.953125 6.39062 -1.79688 Q 7.25 -2.65625 7.25 -4.51562 Q 7.25 -6.34375 6.39062 -7.1875 Q 5.54688 -8.04688 3.71875 -8.04688 Z M 1.125 -9 L 3.5625 -9 Q 6.10938 -9 7.29688 -7.90625 Q 8.5 -6.82812 8.5 -4.5 Q 8.5 -2.17188 7.29688 -1.07812 Q 6.10938 -0 3.5625 -0 L 1.125 -0 Z" id="BitstreamVeraSans-Roman-68" /><path d="M 6.64062 -4.125 L 6.64062 -0 L 5.5 -0 L 5.5 -4.10938 Q 5.5 -5.07812 5.14062 -5.5625 Q 4.79688 -6.04688 4.09375 -6.04688 Q 3.23438 -6.04688 2.75 -5.45312 Q 2.26562 -4.875 2.26562 -3.875 L 2.26562 -0 L 1.125 -0 L 1.125 -7 L 2.26562 -7 L 2.26562 -5.79688 Q 2.64062 -6.40625 3.15625 -6.70312 Q 3.6875 -7 4.35938 -7 Q 5.48438 -7 6.0625 -6.26562 Q 6.64062 -5.54688 6.64062 -4.125" id="BitstreamVeraSans-Roman-110" /><path d="M 3.64062 -6.04688 Q 2.76562 -6.04688 2.26562 -5.35938 Q 1.76562 -4.6875 1.76562 -3.5 Q 1.76562 -2.3125 2.26562 -1.625 Q 2.76562 -0.953125 3.64062 -0.953125 Q 4.5 -0.953125 5 -1.625 Q 5.5 -2.3125 5.5 -3.5 Q 5.5 -4.67188 5 -5.35938 Q 4.5 -6.04688 3.64062 -6.04688 M 3.625 -7 Q 5.03125 -7 5.82812 -6.0625 Q 6.64062 -5.14062 6.64062 -3.5 Q 6.64062 -1.85938 5.82812 -0.921875 Q 5.03125 -0 3.625 -0 Q 2.21875 -0 1.42188 -0.921875 Q 0.625 -1.85938 0.625 -3.5 Q 0.625 -5.14062 1.42188 -6.0625 Q 2.21875 -7 3.625 -7" id="BitstreamVeraSans-Roman-111" /><path d="M 5.375 -5.79688 L 5.375 -10 L 6.51562 -10 L 6.51562 -0 L 5.375 -0 L 5.375 -1.20312 Q 5.03125 -0.59375 4.51562 -0.296875 Q 4.01562 -0 3.28125 -0 Q 2.10938 -0 1.35938 -0.953125 Q 0.625 -1.92188 0.625 -3.5 Q 0.625 -5.07812 1.35938 -6.03125 Q 2.10938 -7 3.28125 -7 Q 4.01562 -7 4.51562 -6.70312 Q 5.03125 -6.40625 5.375 -5.79688 M 1.76562 -3.5 Q 1.76562 -2.3125 2.23438 -1.625 Q 2.71875 -0.953125 3.5625 -0.953125 Q 4.40625 -0.953125 4.89062 -1.625 Q 5.375 -2.3125 5.375 -3.5 Q 5.375 -4.6875 4.89062 -5.35938 Q 4.40625 -6.04688 3.5625 -6.04688 Q 2.71875 -6.04688 2.23438 -5.35938 Q 1.76562 -4.6875 1.76562 -3.5" id="BitstreamVeraSans-Roman-100" /><path d="M 5.39062 -6.625 L 5.39062 -5.57812 Q 4.92188 -5.8125 4.42188 -5.92188 Q 3.92188 -6.04688 3.39062 -6.04688 Q 2.5625 -6.04688 2.15625 -5.79688 Q 1.75 -5.54688 1.75 -5.04688 Q 1.75 -4.67188 2.04688 -4.45312 Q 2.34375 -4.25 3.21875 -4.04688 L 3.59375 -3.95312 Q 4.76562 -3.71875 5.25 -3.25 Q 5.75 -2.79688 5.75 -2 Q 5.75 -1.07812 5.01562 -0.53125 Q 4.29688 -0 3.01562 -0 Q 2.48438 -0 1.90625 -0.09375 Q 1.34375 -0.203125 0.703125 -0.4375 L 0.703125 -1.57812 Q 1.29688 -1.26562 1.875 -1.10938 Q 2.46875 -0.953125 3.03125 -0.953125 Q 3.79688 -0.953125 4.20312 -1.21875 Q 4.60938 -1.48438 4.60938 -1.95312 Q 4.60938 -2.40625 4.3125 -2.64062 Q 4.01562 -2.875 3.01562 -3.09375 L 2.64062 -3.1875 Q 1.64062 -3.39062 1.1875 -3.82812 Q 0.75 -4.26562 0.75 -5.04688 Q 0.75 -5.98438 1.40625 -6.48438 Q 2.0625 -7 3.28125 -7 Q 3.875 -7 4.40625 -6.89062 Q 4.9375 -6.79688 5.39062 -6.625" id="BitstreamVeraSans-Roman-115" /><path d="M 3.85938 0.9375 Q 3.40625 2.21875 2.96875 2.60938 Q 2.53125 3 1.8125 3 L 0.953125 3 L 0.953125 2.0625 L 1.57812 2.0625 Q 2.03125 2.0625 2.26562 1.82812 Q 2.51562 1.59375 2.8125 0.734375 L 3.01562 0.1875 L 0.359375 -7 L 1.5 -7 L 3.54688 -1.29688 L 5.60938 -7 L 6.75 -7 Z" id="BitstreamVeraSans-Roman-121" /><path d="M 3.875 -4.03125 Q 3 -4.03125 2.5 -3.625 Q 2.01562 -3.21875 2.01562 -2.48438 Q 2.01562 -1.76562 2.5 -1.35938 Q 3 -0.953125 3.875 -0.953125 Q 4.73438 -0.953125 5.23438 -1.35938 Q 5.73438 -1.78125 5.73438 -2.5 Q 5.73438 -3.21875 5.23438 -3.625 Q 4.75 -4.03125 3.875 -4.03125 M 2.6875 -4.53125 Q 1.9375 -4.71875 1.51562 -5.26562 Q 1.10938 -5.82812 1.10938 -6.60938 Q 1.10938 -7.71875 1.84375 -8.35938 Q 2.59375 -9 3.875 -9 Q 5.17188 -9 5.90625 -8.35938 Q 6.64062 -7.71875 6.64062 -6.60938 Q 6.64062 -5.82812 6.21875 -5.26562 Q 5.8125 -4.71875 5.0625 -4.53125 Q 5.92188 -4.32812 6.39062 -3.78125 Q 6.875 -3.25 6.875 -2.46875 Q 6.875 -1.26562 6.09375 -0.625 Q 5.32812 -0 3.875 -0 Q 2.42188 -0 1.64062 -0.625 Q 0.875 -1.26562 0.875 -2.46875 Q 0.875 -3.25 1.34375 -3.78125 Q 1.82812 -4.32812 2.6875 -4.53125 M 2.25 -6.5 Q 2.25 -5.78125 2.67188 -5.375 Q 3.10938 -4.96875 3.875 -4.96875 Q 4.64062 -4.96875 5.0625 -5.375 Q 5.5 -5.78125 5.5 -6.51562 Q 5.5 -7.25 5.0625 -7.64062 Q 4.64062 -8.04688 3.875 -8.04688 Q 3.10938 -8.04688 2.67188 -7.64062 Q 2.25 -7.25 2.25 -6.5" id="BitstreamVeraSans-Roman-56" /><path d="M 1.25 -9 L 5.89062 -9 L 5.89062 -8.04688 L 2.39062 -8.04688 L 2.39062 -5.79688 Q 2.64062 -5.89062 2.89062 -5.92188 Q 3.14062 -5.96875 3.40625 -5.96875 Q 4.82812 -5.96875 5.67188 -5.15625 Q 6.51562 -4.35938 6.51562 -2.98438 Q 6.51562 -1.5625 5.64062 -0.78125 Q 4.76562 -0 3.17188 -0 Q 2.625 -0 2.04688 -0.078125 Q 1.48438 -0.171875 0.875 -0.359375 L 0.875 -1.53125 Q 1.40625 -1.23438 1.96875 -1.09375 Q 2.53125 -0.953125 3.17188 -0.953125 Q 4.1875 -0.953125 4.78125 -1.5 Q 5.375 -2.04688 5.375 -3 Q 5.375 -3.9375 4.78125 -4.48438 Q 4.1875 -5.03125 3.17188 -5.03125 Q 2.6875 -5.03125 2.21875 -4.92188 Q 1.75 -4.8125 1.25 -4.57812 Z" id="BitstreamVeraSans-Roman-53" /><path d="M 1.28125 -0.34375 L 1.28125 -1.375 Q 1.73438 -1.17188 2.1875 -1.0625 Q 2.65625 -0.953125 3.09375 -0.953125 Q 4.26562 -0.953125 4.875 -1.73438 Q 5.5 -2.51562 5.5 -4.09375 Q 5.17188 -3.57812 4.65625 -3.29688 Q 4.15625 -3.03125 3.53125 -3.03125 Q 2.25 -3.03125 1.5 -3.82812 Q 0.75 -4.625 0.75 -6 Q 0.75 -7.35938 1.53125 -8.17188 Q 2.32812 -9 3.65625 -9 Q 5.15625 -9 5.95312 -7.84375 Q 6.75 -6.6875 6.75 -4.5 Q 6.75 -2.4375 5.76562 -1.21875 Q 4.79688 -0 3.14062 -0 Q 2.6875 -0 2.23438 -0.078125 Q 1.78125 -0.171875 1.28125 -0.34375 M 3.60938 -3.96875 Q 4.40625 -3.96875 4.875 -4.51562 Q 5.34375 -5.0625 5.34375 -6.01562 Q 5.34375 -6.95312 4.875 -7.5 Q 4.40625 -8.04688 3.60938 -8.04688 Q 2.8125 -8.04688 2.34375 -7.5 Q 1.89062 -6.95312 1.89062 -6 Q 1.89062 -5.0625 2.34375 -4.51562 Q 2.8125 -3.96875 3.60938 -3.96875" id="BitstreamVeraSans-Roman-57" /><path d="M 1.25 -9 L 2.39062 -9 L 2.39062 -0.25 Q 2.39062 1.46875 1.79688 2.23438 Q 1.20312 3 -0.125 3 L -0.5625 3 L -0.5625 2.04688 L -0.1875 2.04688 Q 0.59375 2.04688 0.921875 1.5625 Q 1.25 1.07812 1.25 -0.15625 Z" id="BitstreamVeraSans-Roman-74" /><path d="M 3.75 -8.04688 Q 2.82812 -8.04688 2.35938 -7.15625 Q 1.89062 -6.26562 1.89062 -4.5 Q 1.89062 -2.71875 2.35938 -1.82812 Q 2.82812 -0.953125 3.75 -0.953125 Q 4.6875 -0.953125 5.15625 -1.84375 Q 5.625 -2.73438 5.625 -4.5 Q 5.625 -6.28125 5.15625 -7.15625 Q 4.6875 -8.04688 3.75 -8.04688 M 3.75 -9 Q 5.21875 -9 5.98438 -7.84375 Q 6.76562 -6.6875 6.76562 -4.5 Q 6.76562 -2.3125 5.98438 -1.15625 Q 5.21875 -0 3.75 -0 Q 2.29688 -0 1.51562 -1.15625 Q 0.75 -2.3125 0.75 -4.5 Q 0.75 -6.6875 1.51562 -7.84375 Q 2.29688 -9 3.75 -9" id="BitstreamVeraSans-Roman-48" /><path d="M 5.85938 -3.5 Q 5.85938 -4.6875 5.375 -5.35938 Q 4.90625 -6.04688 4.0625 -6.04688 Q 3.21875 -6.04688 2.73438 -5.35938 Q 2.26562 -4.6875 2.26562 -3.5 Q 2.26562 -2.3125 2.73438 -1.625 Q 3.21875 -0.953125 4.0625 -0.953125 Q 4.90625 -0.953125 5.375 -1.625 Q 5.85938 -2.3125 5.85938 -3.5 M 2.26562 -5.79688 Q 2.59375 -6.40625 3.10938 -6.70312 Q 3.625 -7 4.34375 -7 Q 5.51562 -7 6.25 -6.03125 Q 7 -5.07812 7 -3.5 Q 7 -1.92188 6.25 -0.953125 Q 5.51562 -0 4.34375 -0 Q 3.625 -0 3.10938 -0.296875 Q 2.59375 -0.59375 2.26562 -1.20312 L 2.26562 -0 L 1.125 -0 L 1.125 -10 L 2.26562 -10 Z" id="BitstreamVeraSans-Roman-98" /><path d="M 1.125 -9 L 6.10938 -9 L 6.10938 -8.04688 L 2.26562 -8.04688 L 2.26562 -4.96875 L 5.73438 -4.96875 L 5.73438 -4.03125 L 2.26562 -4.03125 L 2.26562 -0 L 1.125 -0 Z" id="BitstreamVeraSans-Roman-70" /><path d="M 1.125 -9 L 2.875 -9 L 5.125 -2.875 L 7.375 -9 L 9.125 -9 L 9.125 -0 L 7.98438 -0 L 7.98438 -7.90625 L 5.71875 -1.73438 L 4.53125 -1.73438 L 2.26562 -7.90625 L 2.26562 -0 L 1.125 -0 Z" id="BitstreamVeraSans-Roman-77" /><path d="M 4.10938 -7.71875 L 2.5 -2.90625 L 5.71875 -2.90625 Z M 3.4375 -9 L 4.78125 -9 L 8.10938 -0 L 6.875 -0 L 6.07812 -1.90625 L 2.14062 -1.90625 L 1.34375 -0 L 0.09375 -0 Z" id="BitstreamVeraSans-Roman-65" /><path d="M 2.26562 -1.20312 L 2.26562 3 L 1.125 3 L 1.125 -7 L 2.26562 -7 L 2.26562 -5.79688 Q 2.59375 -6.40625 3.10938 -6.70312 Q 3.625 -7 4.34375 -7 Q 5.51562 -7 6.25 -6.03125 Q 7 -5.07812 7 -3.5 Q 7 -1.92188 6.25 -0.953125 Q 5.51562 -0 4.34375 -0 Q 3.625 -0 3.10938 -0.296875 Q 2.59375 -0.59375 2.26562 -1.20312 M 5.85938 -3.5 Q 5.85938 -4.6875 5.375 -5.35938 Q 4.90625 -6.04688 4.0625 -6.04688 Q 3.21875 -6.04688 2.73438 -5.35938 Q 2.26562 -4.6875 2.26562 -3.5 Q 2.26562 -2.3125 2.73438 -1.625 Q 3.21875 -0.953125 4.0625 -0.953125 Q 4.90625 -0.953125 5.375 -1.625 Q 5.85938 -2.3125 5.85938 -3.5" id="BitstreamVeraSans-Roman-112" /><path d="M 1.125 -10 L 2.26562 -10 L 2.26562 -0 L 1.125 -0 Z" id="BitstreamVeraSans-Roman-108" /><path d="M 5.375 -3.5 Q 5.375 -4.71875 4.89062 -5.375 Q 4.42188 -6.04688 3.5625 -6.04688 Q 2.71875 -6.04688 2.23438 -5.375 Q 1.76562 -4.71875 1.76562 -3.5 Q 1.76562 -2.28125 2.23438 -1.60938 Q 2.71875 -0.953125 3.5625 -0.953125 Q 4.42188 -0.953125 4.89062 -1.60938 Q 5.375 -2.28125 5.375 -3.5 M 6.51562 -0.640625 Q 6.51562 1.20312 5.76562 2.10938 Q 5.01562 3 3.48438 3 Q 2.92188 3 2.40625 2.92188 Q 1.90625 2.82812 1.4375 2.625 L 1.4375 1.40625 Q 1.90625 1.75 2.35938 1.90625 Q 2.8125 2.04688 3.29688 2.04688 Q 4.32812 2.04688 4.84375 1.39062 Q 5.375 0.734375 5.375 -0.578125 L 5.375 -1.21875 Q 5.04688 -0.59375 4.53125 -0.296875 Q 4.01562 -0 3.28125 -0 Q 2.09375 -0 1.35938 -0.953125 Q 0.625 -1.92188 0.625 -3.5 Q 0.625 -5.07812 1.35938 -6.03125 Q 2.09375 -7 3.28125 -7 Q 4.01562 -7 4.53125 -6.70312 Q 5.04688 -6.40625 5.375 -5.78125 L 5.375 -7 L 6.51562 -7 Z" id="BitstreamVeraSans-Roman-103" /><path d="M 6.34375 -8.5625 L 6.34375 -7.40625 Q 5.67188 -7.73438 5.0625 -7.89062 Q 4.46875 -8.04688 3.90625 -8.04688 Q 2.9375 -8.04688 2.40625 -7.67188 Q 1.89062 -7.29688 1.89062 -6.625 Q 1.89062 -6.03125 2.23438 -5.73438 Q 2.59375 -5.45312 3.5625 -5.26562 L 4.28125 -5.125 Q 5.60938 -4.875 6.23438 -4.23438 Q 6.875 -3.60938 6.875 -2.5625 Q 6.875 -1.29688 6.01562 -0.640625 Q 5.17188 -0 3.54688 -0 Q 2.92188 -0 2.21875 -0.125 Q 1.53125 -0.265625 0.78125 -0.546875 L 0.78125 -1.76562 Q 1.5 -1.35938 2.1875 -1.15625 Q 2.875 -0.953125 3.53125 -0.953125 Q 4.53125 -0.953125 5.07812 -1.34375 Q 5.625 -1.73438 5.625 -2.46875 Q 5.625 -3.10938 5.23438 -3.46875 Q 4.84375 -3.84375 3.95312 -4.01562 L 3.23438 -4.15625 Q 1.92188 -4.42188 1.32812 -4.96875 Q 0.75 -5.53125 0.75 -6.51562 Q 0.75 -7.67188 1.5625 -8.32812 Q 2.375 -9 3.79688 -9 Q 4.40625 -9 5.03125 -8.89062 Q 5.67188 -8.78125 6.34375 -8.5625" id="BitstreamVeraSans-Roman-83" /><path d="M 4.03125 -5.03125 Q 3.23438 -5.03125 2.76562 -4.48438 Q 2.29688 -3.9375 2.29688 -2.98438 Q 2.29688 -2.04688 2.76562 -1.5 Q 3.23438 -0.953125 4.03125 -0.953125 Q 4.82812 -0.953125 5.28125 -1.5 Q 5.75 -2.04688 5.75 -3 Q 5.75 -3.9375 5.28125 -4.48438 Q 4.82812 -5.03125 4.03125 -5.03125 M 6.34375 -8.65625 L 6.34375 -7.625 Q 5.89062 -7.84375 5.4375 -7.9375 Q 4.98438 -8.04688 4.54688 -8.04688 Q 3.35938 -8.04688 2.73438 -7.26562 Q 2.125 -6.5 2.125 -4.92188 Q 2.46875 -5.42188 2.96875 -5.6875 Q 3.48438 -5.96875 4.09375 -5.96875 Q 5.39062 -5.96875 6.14062 -5.15625 Q 6.89062 -4.35938 6.89062 -2.98438 Q 6.89062 -1.625 6.09375 -0.8125 Q 5.29688 -0 3.98438 -0 Q 2.46875 -0 1.67188 -1.15625 Q 0.875 -2.3125 0.875 -4.5 Q 0.875 -6.54688 1.85938 -7.76562 Q 2.84375 -9 4.5 -9 Q 4.95312 -9 5.40625 -8.90625 Q 5.85938 -8.82812 6.34375 -8.65625" id="BitstreamVeraSans-Roman-54" /><path d="M 1 -9 L 6.625 -9 L 6.625 -8.51562 L 3.45312 -0 L 2.21875 -0 L 5.20312 -8.04688 L 1 -8.04688 Z" id="BitstreamVeraSans-Roman-55" /><path d="M 8.6875 -4.125 Q 8.1875 -4.125 7.90625 -3.70312 Q 7.625 -3.28125 7.625 -2.53125 Q 7.625 -1.8125 7.90625 -1.375 Q 8.1875 -0.953125 8.6875 -0.953125 Q 9.1875 -0.953125 9.46875 -1.375 Q 9.75 -1.8125 9.75 -2.53125 Q 9.75 -3.26562 9.46875 -3.6875 Q 9.1875 -4.125 8.6875 -4.125 M 8.6875 -4.875 Q 9.64062 -4.875 10.1875 -4.20312 Q 10.75 -3.54688 10.75 -2.4375 Q 10.75 -1.3125 10.1875 -0.65625 Q 9.64062 -0 8.6875 -0 Q 7.73438 -0 7.17188 -0.65625 Q 6.625 -1.3125 6.625 -2.4375 Q 6.625 -3.5625 7.1875 -4.21875 Q 7.75 -4.875 8.6875 -4.875 M 2.625 -8.04688 Q 2.09375 -8.04688 1.79688 -7.64062 Q 1.5 -7.23438 1.5 -6.5 Q 1.5 -5.78125 1.79688 -5.375 Q 2.09375 -4.96875 2.625 -4.96875 Q 3.15625 -4.96875 3.45312 -5.375 Q 3.75 -5.78125 3.75 -6.51562 Q 3.75 -7.23438 3.4375 -7.64062 Q 3.14062 -8.04688 2.625 -8.04688 M 7.95312 -9 L 8.875 -9 L 3.40625 -0 L 2.4375 -0 Z M 2.6875 -9 Q 3.625 -9 4.1875 -8.34375 Q 4.75 -7.6875 4.75 -6.5625 Q 4.75 -5.42188 4.1875 -4.76562 Q 3.64062 -4.125 2.6875 -4.125 Q 1.73438 -4.125 1.17188 -4.78125 Q 0.625 -5.4375 0.625 -6.5625 Q 0.625 -7.6875 1.17188 -8.34375 Q 1.73438 -9 2.6875 -9" id="BitstreamVeraSans-Roman-37" /></defs><g fill="black" stroke="black" stroke-width="1" transform="translate(8,8)"><g stroke="none" transform="translate(8,18.5)"><use x="0" xlink:href="#BitstreamVeraSans-Roman-78" /><use x="0" xlink:href="#BitstreamVeraSans-Roman-78" /><use x="8.97656" xlink:href="#BitstreamVeraSans-Roman-97" /><use x="8.97656" xlink:href="#BitstreamVeraSans-Roman-97" /><use x="16.3301" xlink:href="#BitstreamVeraSans-Roman-109" /><use x="16.3301" xlink:href="#BitstreamVeraSans-Roman-109" /><use x="28.0195" xlink:href="#BitstreamVeraSans-Roman-101" /><use x="28.0195" xlink:href="#BitstreamVeraSans-Roman-101" /></g><g stroke="none" transform="translate(8,46.5)"><use x="0" xlink:href="#BitstreamVeraSans-Roman-73" /><use x="0" xlink:href="#BitstreamVeraSans-Roman-73" /><use x="3.53906" xlink:href="#BitstreamVeraSans-Roman-116" /><use x="3.53906" xlink:href="#BitstreamVeraSans-Roman-116" /><use x="8.24414" xlink:href="#BitstreamVeraSans-Roman-101" /><use x="8.24414" xlink:href="#BitstreamVeraSans-Roman-101" /><use x="15.627" xlink:href="#BitstreamVeraSans-Roman-109" /><use x="15.627" xlink:href="#BitstreamVeraSans-Roman-109" /><use x="27.3164" xlink:href="#BitstreamVeraSans-Roman-32" /><use x="27.3164" xlink:href="#BitstreamVeraSans-Roman-32" /><use x="31.1309" xlink:href="#BitstreamVeraSans-Roman-49" /><use x="31.1309" xlink:href="#BitstreamVeraSans-Roman-49" /></g><g stroke="none" transform="translate(8,74.5)"><use x="0" xlink:href="#BitstreamVeraSans-Roman-73" /><use x="0" xlink:href="#BitstreamVeraSans-Roman-73" /><use x="3.53906" xlink:href="#BitstreamVeraSans-Roman-116" /><use x="3.53906" xlink:href="#BitstreamVeraSans-Roman-116" /><use x="8.24414" xlink:href="#BitstreamVeraSans-Roman-101" /><use x="8.24414" xlink:href="#BitstreamVeraSans-Roman-101" /><use x="15.627" xlink:href="#BitstreamVeraSans-Roman-109" /><use x="15.627" xlink:href="#BitstreamVeraSans-Roman-109" /><use x="27.3164" xlink:href="#BitstreamVeraSans-Roman-32" /><use x="27.3164" xlink:href="#BitstreamVeraSans-Roman-32" /><use x="31.1309" xlink:href="#BitstreamVeraSans-Roman-50" /><use x="31.1309" xlink:href="#BitstreamVeraSans-Roman-50" /></g><g stroke="none" transform="translate(8,102.5)"><use x="0" xlink:href="#BitstreamVeraSans-Roman-73" /><use x="0" xlink:href="#BitstreamVeraSans-Roman-73" /><use x="3.53906" xlink:href="#BitstreamVeraSans-Roman-116" /><use x="3.53906" xlink:href="#BitstreamVeraSans-Roman-116" /><use x="8.24414" xlink:href="#BitstreamVeraSans-Roman-101" /><use x="8.24414" xlink:href="#BitstreamVeraSans-Roman-101" /><use x="15.627" xlink:href="#BitstreamVeraSans-Roman-109" /><use x="15.627" xlink:href="#BitstreamVeraSans-Roman-109" /><use x="27.3164" xlink:href="#BitstreamVeraSans-Roman-32" /><use x="27.3164" xlink:href="#BitstreamVeraSans-Roman-32" /><use x="31.1309" xlink:href="#BitstreamVeraSans-Roman-51" /><use x="31.1309" xlink:href="#BitstreamVeraSans-Roman-51" /></g><g stroke="none" transform="translate(8,130.5)"><use x="0" xlink:href="#BitstreamVeraSans-Roman-73" /><use x="0" xlink:href="#BitstreamVeraSans-Roman-73" /><use x="3.53906" xlink:href="#BitstreamVeraSans-Roman-116" /><use x="3.53906" xlink:href="#BitstreamVeraSans-Roman-116" /><use x="8.24414" xlink:href="#BitstreamVeraSans-Roman-101" /><use x="8.24414" xlink:href="#BitstreamVeraSans-Roman-101" /><use x="15.627" xlink:href="#BitstreamVeraSans-Roman-109" /><use x="15.627" xlink:href="#BitstreamVeraSans-Roman-109" /><use x="27.3164" xlink:href="#BitstreamVeraSans-Roman-32" /><use x="27.3164" xlink:href="#BitstreamVeraSans-Roman-32" /><use x="31.1309" xlink:href="#BitstreamVeraSans-Roman-52" /><use x="31.1309" xlink:href="#BitstreamVeraSans-Roman-52" /></g><g stroke="none" transform="translate(8,158.5)"><use x="0" xlink:href="#BitstreamVeraSans-Roman-73" /><use x="0" xlink:href="#BitstreamVeraSans-Roman-73" /><use x="3.53906" xlink:href="#BitstreamVeraSans-Roman-116" /><use x="3.53906" xlink:href="#BitstreamVeraSans-Roman-116" /><use x="8.24414" xlink:href="#BitstreamVeraSans-Roman-101" /><use x="8.24414" xlink:href="#BitstreamVeraSans-Roman-101" /><use x="15.627" xlink:href="#BitstreamVeraSans-Roman-109" /><use x="15.627" xlink:href="#BitstreamVeraSans-Roman-109" /><use x="27.3164" xlink:href="#BitstreamVeraSans-Roman-32" /><use x="27.3164" xlink:href="#BitstreamVeraSans-Roman-32" /><use x="31.1309" xlink:href="#BitstreamVeraSans-Roman-52" /><use x="31.1309" xlink:href="#BitstreamVeraSans-Roman-52" /></g><line x1="0" x2="0" y1="0" y2="168.0" /><line x1="984" x2="984" y1="0" y2="168.0" /><line x1="54.140625" x2="54.140625" y1="0" y2="168.0" /><line x1="0" x2="984" y1="0" y2="0" /><line x1="0" x2="984" y1="28" y2="28" /><line x1="0" x2="984" y1="56" y2="56" /><line x1="0" x2="984" y1="84" y2="84" /><line x1="0" x2="984" y1="112" y2="112" /><line x1="0" x2="984" y1="140" y2="140" /><line x1="0" x2="984" y1="168" y2="168" /><g stroke="none" transform="translate(66.625,19)"><use x="0" xlink:href="#BitstreamVeraSans-Roman-68" /><use x="0" xlink:href="#BitstreamVeraSans-Roman-68" /><use x="9.24023" xlink:href="#BitstreamVeraSans-Roman-117" /><use x="9.24023" xlink:href="#BitstreamVeraSans-Roman-117" /><use x="16.8457" xlink:href="#BitstreamVeraSans-Roman-114" /><use x="16.8457" xlink:href="#BitstreamVeraSans-Roman-114" /><use x="21.7793" xlink:href="#BitstreamVeraSans-Roman-97" /><use x="21.7793" xlink:href="#BitstreamVeraSans-Roman-97" /><use x="29.1328" xlink:href="#BitstreamVeraSans-Roman-116" /><use x="29.1328" xlink:href="#BitstreamVeraSans-Roman-116" /><use x="33.8379" xlink:href="#BitstreamVeraSans-Roman-105" /><use x="33.8379" xlink:href="#BitstreamVeraSans-Roman-105" /><use x="37.1719" xlink:href="#BitstreamVeraSans-Roman-111" /><use x="37.1719" xlink:href="#BitstreamVeraSans-Roman-111" /><use x="44.5137" xlink:href="#BitstreamVeraSans-Roman-110" /><use x="44.5137" xlink:href="#BitstreamVeraSans-Roman-110" /></g><g stroke="none" transform="translate(62.1406,47)"><use x="0" xlink:href="#BitstreamVeraSans-Roman-50" /><use x="0" xlink:href="#BitstreamVeraSans-Roman-50" /><use x="7.63477" xlink:href="#BitstreamVeraSans-Roman-49" /><use x="7.63477" xlink:href="#BitstreamVeraSans-Roman-49" /><use x="15.2695" xlink:href="#BitstreamVeraSans-Roman-56" /><use x="15.2695" xlink:href="#BitstreamVeraSans-Roman-56" /><use x="22.9043" xlink:href="#BitstreamVeraSans-Roman-32" /><use x="22.9043" xlink:href="#BitstreamVeraSans-Roman-32" /><use x="26.7188" xlink:href="#BitstreamVeraSans-Roman-100" /><use x="26.7188" xlink:href="#BitstreamVeraSans-Roman-100" /><use x="34.3359" xlink:href="#BitstreamVeraSans-Roman-97" /><use x="34.3359" xlink:href="#BitstreamVeraSans-Roman-97" /><use x="41.6895" xlink:href="#BitstreamVeraSans-Roman-121" /><use x="41.6895" xlink:href="#BitstreamVeraSans-Roman-121" /><use x="48.791" xlink:href="#BitstreamVeraSans-Roman-115" /><use x="48.791" xlink:href="#BitstreamVeraSans-Roman-115" /></g><g stroke="none" transform="translate(62.1406,75)"><use x="0" xlink:href="#BitstreamVeraSans-Roman-49" /><use x="0" xlink:href="#BitstreamVeraSans-Roman-49" /><use x="7.63477" xlink:href="#BitstreamVeraSans-Roman-53" /><use x="7.63477" xlink:href="#BitstreamVeraSans-Roman-53" /><use x="15.2695" xlink:href="#BitstreamVeraSans-Roman-57" /><use x="15.2695" xlink:href="#BitstreamVeraSans-Roman-57" /><use x="22.9043" xlink:href="#BitstreamVeraSans-Roman-32" /><use x="22.9043" xlink:href="#BitstreamVeraSans-Roman-32" /><use x="26.7188" xlink:href="#BitstreamVeraSans-Roman-100" /><use x="26.7188" xlink:href="#BitstreamVeraSans-Roman-100" /><use x="34.3359" xlink:href="#BitstreamVeraSans-Roman-97" /><use x="34.3359" xlink:href="#BitstreamVeraSans-Roman-97" /><use x="41.6895" xlink:href="#BitstreamVeraSans-Roman-121" /><use x="41.6895" xlink:href="#BitstreamVeraSans-Roman-121" /><use x="48.791" xlink:href="#BitstreamVeraSans-Roman-115" /><use x="48.791" xlink:href="#BitstreamVeraSans-Roman-115" /></g><g stroke="none" transform="translate(62.1406,103)"><use x="0" xlink:href="#BitstreamVeraSans-Roman-49" /><use x="0" xlink:href="#BitstreamVeraSans-Roman-49" /><use x="7.63477" xlink:href="#BitstreamVeraSans-Roman-50" /><use x="7.63477" xlink:href="#BitstreamVeraSans-Roman-50" /><use x="15.2695" xlink:href="#BitstreamVeraSans-Roman-56" /><use x="15.2695" xlink:href="#BitstreamVeraSans-Roman-56" /><use x="22.9043" xlink:href="#BitstreamVeraSans-Roman-32" /><use x="22.9043" xlink:href="#BitstreamVeraSans-Roman-32" /><use x="26.7188" xlink:href="#BitstreamVeraSans-Roman-100" /><use x="26.7188" xlink:href="#BitstreamVeraSans-Roman-100" /><use x="34.3359" xlink:href="#BitstreamVeraSans-Roman-97" /><use x="34.3359" xlink:href="#BitstreamVeraSans-Roman-97" /><use x="41.6895" xlink:href="#BitstreamVeraSans-Roman-121" /><use x="41.6895" xlink:href="#BitstreamVeraSans-Roman-121" /><use x="48.791" xlink:href="#BitstreamVeraSans-Roman-115" /><use x="48.791" xlink:href="#BitstreamVeraSans-Roman-115" /></g><g stroke="none" transform="translate(69.7656,131)"><use x="0" xlink:href="#BitstreamVeraSans-Roman-57" /><use x="0" xlink:href="#BitstreamVeraSans-Roman-57" /><use x="7.63477" xlink:href="#BitstreamVeraSans-Roman-56" /><use x="7.63477" xlink:href="#BitstreamVeraSans-Roman-56" /><use x="15.2695" xlink:href="#BitstreamVeraSans-Roman-32" /><use x="15.2695" xlink:href="#BitstreamVeraSans-Roman-32" /><use x="19.084" xlink:href="#BitstreamVeraSans-Roman-100" /><use x="19.084" xlink:href="#BitstreamVeraSans-Roman-100" /><use x="26.7012" xlink:href="#BitstreamVeraSans-Roman-97" /><use x="26.7012" xlink:href="#BitstreamVeraSans-Roman-97" /><use x="34.0547" xlink:href="#BitstreamVeraSans-Roman-121" /><use x="34.0547" xlink:href="#BitstreamVeraSans-Roman-121" /><use x="41.1562" xlink:href="#BitstreamVeraSans-Roman-115" /><use x="41.1562" xlink:href="#BitstreamVeraSans-Roman-115" /></g><g stroke="none" transform="translate(62.1406,159)"><use x="0" xlink:href="#BitstreamVeraSans-Roman-49" /><use x="0" xlink:href="#BitstreamVeraSans-Roman-49" /><use x="7.63477" xlink:href="#BitstreamVeraSans-Roman-50" /><use x="7.63477" xlink:href="#BitstreamVeraSans-Roman-50" /><use x="15.2695" xlink:href="#BitstreamVeraSans-Roman-53" /><use x="15.2695" xlink:href="#BitstreamVeraSans-Roman-53" /><use x="22.9043" xlink:href="#BitstreamVeraSans-Roman-32" /><use x="22.9043" xlink:href="#BitstreamVeraSans-Roman-32" /><use x="26.7188" xlink:href="#BitstreamVeraSans-Roman-100" /><use x="26.7188" xlink:href="#BitstreamVeraSans-Roman-100" /><use x="34.3359" xlink:href="#BitstreamVeraSans-Roman-97" /><use x="34.3359" xlink:href="#BitstreamVeraSans-Roman-97" /><use x="41.6895" xlink:href="#BitstreamVeraSans-Roman-121" /><use x="41.6895" xlink:href="#BitstreamVeraSans-Roman-121" /><use x="48.791" xlink:href="#BitstreamVeraSans-Roman-115" /><use x="48.791" xlink:href="#BitstreamVeraSans-Roman-115" /></g><line x1="124.890625" x2="124.890625" y1="0" y2="168.0" /><line x1="124.890625" x2="124.890625" y1="0" y2="14.0" /><g stroke="none" transform="translate(152.179,11.5)"><use x="0" xlink:href="#BitstreamVeraSans-Roman-74" /><use x="0" xlink:href="#BitstreamVeraSans-Roman-74" /><use x="3.53906" xlink:href="#BitstreamVeraSans-Roman-97" /><use x="3.53906" xlink:href="#BitstreamVeraSans-Roman-97" /><use x="10.8926" xlink:href="#BitstreamVeraSans-Roman-110" /><use x="10.8926" xlink:href="#BitstreamVeraSans-Roman-110" /><use x="18.498" xlink:href="#BitstreamVeraSans-Roman-32" /><use x="18.498" xlink:href="#BitstreamVeraSans-Roman-32" /><use x="22.3125" xlink:href="#BitstreamVeraSans-Roman-50" /><use x="22.3125" xlink:href="#BitstreamVeraSans-Roman-50" /><use x="29.9473" xlink:href="#BitstreamVeraSans-Roman-48" /><use x="29.9473" xlink:href="#BitstreamVeraSans-Roman-48" /><use x="37.582" xlink:href="#BitstreamVeraSans-Roman-48" /><use x="37.582" xlink:href="#BitstreamVeraSans-Roman-48" /><use x="45.2168" xlink:href="#BitstreamVeraSans-Roman-57" /><use x="45.2168" xlink:href="#BitstreamVeraSans-Roman-57" /></g><line x1="131.207605699" x2="131.207605699" y1="0" y2="14.0" /><g stroke="none" transform="translate(241.289,12)"><use x="0" xlink:href="#BitstreamVeraSans-Roman-70" /><use x="0" xlink:href="#BitstreamVeraSans-Roman-70" /><use x="6.27734" xlink:href="#BitstreamVeraSans-Roman-101" /><use x="6.27734" xlink:href="#BitstreamVeraSans-Roman-101" /><use x="13.6602" xlink:href="#BitstreamVeraSans-Roman-98" /><use x="13.6602" xlink:href="#BitstreamVeraSans-Roman-98" /><use x="21.2773" xlink:href="#BitstreamVeraSans-Roman-32" /><use x="21.2773" xlink:href="#BitstreamVeraSans-Roman-32" /><use x="25.0918" xlink:href="#BitstreamVeraSans-Roman-50" /><use x="25.0918" xlink:href="#BitstreamVeraSans-Roman-50" /><use x="32.7266" xlink:href="#BitstreamVeraSans-Roman-48" /><use x="32.7266" xlink:href="#BitstreamVeraSans-Roman-48" /><use x="40.3613" xlink:href="#BitstreamVeraSans-Roman-48" /><use x="40.3613" xlink:href="#BitstreamVeraSans-Roman-48" /><use x="47.9961" xlink:href="#BitstreamVeraSans-Roman-57" /><use x="47.9961" xlink:href="#BitstreamVeraSans-Roman-57" /></g><line x1="225.962316176" x2="225.962316176" y1="0" y2="14.0" /><g stroke="none" transform="translate(330.494,11.5)"><use x="0" xlink:href="#BitstreamVeraSans-Roman-77" /><use x="0" xlink:href="#BitstreamVeraSans-Roman-77" /><use x="10.3535" xlink:href="#BitstreamVeraSans-Roman-97" /><use x="10.3535" xlink:href="#BitstreamVeraSans-Roman-97" /><use x="17.707" xlink:href="#BitstreamVeraSans-Roman-114" /><use x="17.707" xlink:href="#BitstreamVeraSans-Roman-114" /><use x="22.6406" xlink:href="#BitstreamVeraSans-Roman-32" /><use x="22.6406" xlink:href="#BitstreamVeraSans-Roman-32" /><use x="26.4551" xlink:href="#BitstreamVeraSans-Roman-50" /><use x="26.4551" xlink:href="#BitstreamVeraSans-Roman-50" /><use x="34.0898" xlink:href="#BitstreamVeraSans-Roman-48" /><use x="34.0898" xlink:href="#BitstreamVeraSans-Roman-48" /><use x="41.7246" xlink:href="#BitstreamVeraSans-Roman-48" /><use x="41.7246" xlink:href="#BitstreamVeraSans-Roman-48" /><use x="49.3594" xlink:href="#BitstreamVeraSans-Roman-57" /><use x="49.3594" xlink:href="#BitstreamVeraSans-Roman-57" /></g><line x1="311.241555607" x2="311.241555607" y1="0" y2="14.0" /><g stroke="none" transform="translate(424.607,11.5)"><use x="0" xlink:href="#BitstreamVeraSans-Roman-65" /><use x="0" xlink:href="#BitstreamVeraSans-Roman-65" /><use x="8.20898" xlink:href="#BitstreamVeraSans-Roman-112" /><use x="8.20898" xlink:href="#BitstreamVeraSans-Roman-112" /><use x="15.8262" xlink:href="#BitstreamVeraSans-Roman-114" /><use x="15.8262" xlink:href="#BitstreamVeraSans-Roman-114" /><use x="20.7598" xlink:href="#BitstreamVeraSans-Roman-32" /><use x="20.7598" xlink:href="#BitstreamVeraSans-Roman-32" /><use x="24.5742" xlink:href="#BitstreamVeraSans-Roman-50" /><use x="24.5742" xlink:href="#BitstreamVeraSans-Roman-50" /><use x="32.209" xlink:href="#BitstreamVeraSans-Roman-48" /><use x="32.209" xlink:href="#BitstreamVeraSans-Roman-48" /><use x="39.8438" xlink:href="#BitstreamVeraSans-Roman-48" /><use x="39.8438" xlink:href="#BitstreamVeraSans-Roman-48" /><use x="47.4785" xlink:href="#BitstreamVeraSans-Roman-57" /><use x="47.4785" xlink:href="#BitstreamVeraSans-Roman-57" /></g><line x1="405.996266085" x2="405.996266085" y1="0" y2="14.0" /><g stroke="none" transform="translate(515.782,11.5)"><use x="0" xlink:href="#BitstreamVeraSans-Roman-77" /><use x="0" xlink:href="#BitstreamVeraSans-Roman-77" /><use x="10.3535" xlink:href="#BitstreamVeraSans-Roman-97" /><use x="10.3535" xlink:href="#BitstreamVeraSans-Roman-97" /><use x="17.707" xlink:href="#BitstreamVeraSans-Roman-121" /><use x="17.707" xlink:href="#BitstreamVeraSans-Roman-121" /><use x="24.8086" xlink:href="#BitstreamVeraSans-Roman-32" /><use x="24.8086" xlink:href="#BitstreamVeraSans-Roman-32" /><use x="28.623" xlink:href="#BitstreamVeraSans-Roman-50" /><use x="28.623" xlink:href="#BitstreamVeraSans-Roman-50" /><use x="36.2578" xlink:href="#BitstreamVeraSans-Roman-48" /><use x="36.2578" xlink:href="#BitstreamVeraSans-Roman-48" /><use x="43.8926" xlink:href="#BitstreamVeraSans-Roman-48" /><use x="43.8926" xlink:href="#BitstreamVeraSans-Roman-48" /><use x="51.5273" xlink:href="#BitstreamVeraSans-Roman-57" /><use x="51.5273" xlink:href="#BitstreamVeraSans-Roman-57" /></g><line x1="497.592486213" x2="497.592486213" y1="0" y2="14.0" /><g stroke="none" transform="translate(611.677,11.5)"><use x="0" xlink:href="#BitstreamVeraSans-Roman-74" /><use x="0" xlink:href="#BitstreamVeraSans-Roman-74" /><use x="3.53906" xlink:href="#BitstreamVeraSans-Roman-117" /><use x="3.53906" xlink:href="#BitstreamVeraSans-Roman-117" /><use x="11.1445" xlink:href="#BitstreamVeraSans-Roman-110" /><use x="11.1445" xlink:href="#BitstreamVeraSans-Roman-110" /><use x="18.75" xlink:href="#BitstreamVeraSans-Roman-32" /><use x="18.75" xlink:href="#BitstreamVeraSans-Roman-32" /><use x="22.5645" xlink:href="#BitstreamVeraSans-Roman-50" /><use x="22.5645" xlink:href="#BitstreamVeraSans-Roman-50" /><use x="30.1992" xlink:href="#BitstreamVeraSans-Roman-48" /><use x="30.1992" xlink:href="#BitstreamVeraSans-Roman-48" /><use x="37.834" xlink:href="#BitstreamVeraSans-Roman-48" /><use x="37.834" xlink:href="#BitstreamVeraSans-Roman-48" /><use x="45.4688" xlink:href="#BitstreamVeraSans-Roman-57" /><use x="45.4688" xlink:href="#BitstreamVeraSans-Roman-57" /></g><line x1="592.347196691" x2="592.347196691" y1="0" y2="14.0" /><g stroke="none" transform="translate(706.977,12)"><use x="0" xlink:href="#BitstreamVeraSans-Roman-74" /><use x="0" xlink:href="#BitstreamVeraSans-Roman-74" /><use x="3.53906" xlink:href="#BitstreamVeraSans-Roman-117" /><use x="3.53906" xlink:href="#BitstreamVeraSans-Roman-117" /><use x="11.1445" xlink:href="#BitstreamVeraSans-Roman-108" /><use x="11.1445" xlink:href="#BitstreamVeraSans-Roman-108" /><use x="14.4785" xlink:href="#BitstreamVeraSans-Roman-32" /><use x="14.4785" xlink:href="#BitstreamVeraSans-Roman-32" /><use x="18.293" xlink:href="#BitstreamVeraSans-Roman-50" /><use x="18.293" xlink:href="#BitstreamVeraSans-Roman-50" /><use x="25.9277" xlink:href="#BitstreamVeraSans-Roman-48" /><use x="25.9277" xlink:href="#BitstreamVeraSans-Roman-48" /><use x="33.5625" xlink:href="#BitstreamVeraSans-Roman-48" /><use x="33.5625" xlink:href="#BitstreamVeraSans-Roman-48" /><use x="41.1973" xlink:href="#BitstreamVeraSans-Roman-57" /><use x="41.1973" xlink:href="#BitstreamVeraSans-Roman-57" /></g><line x1="683.94341682" x2="683.94341682" y1="0" y2="14.0" /><g stroke="none" transform="translate(797.575,11.5)"><use x="0" xlink:href="#BitstreamVeraSans-Roman-65" /><use x="0" xlink:href="#BitstreamVeraSans-Roman-65" /><use x="8.20898" xlink:href="#BitstreamVeraSans-Roman-117" /><use x="8.20898" xlink:href="#BitstreamVeraSans-Roman-117" /><use x="15.8145" xlink:href="#BitstreamVeraSans-Roman-103" /><use x="15.8145" xlink:href="#BitstreamVeraSans-Roman-103" /><use x="23.4316" xlink:href="#BitstreamVeraSans-Roman-32" /><use x="23.4316" xlink:href="#BitstreamVeraSans-Roman-32" /><use x="27.2461" xlink:href="#BitstreamVeraSans-Roman-50" /><use x="27.2461" xlink:href="#BitstreamVeraSans-Roman-50" /><use x="34.8809" xlink:href="#BitstreamVeraSans-Roman-48" /><use x="34.8809" xlink:href="#BitstreamVeraSans-Roman-48" /><use x="42.5156" xlink:href="#BitstreamVeraSans-Roman-48" /><use x="42.5156" xlink:href="#BitstreamVeraSans-Roman-48" /><use x="50.1504" xlink:href="#BitstreamVeraSans-Roman-57" /><use x="50.1504" xlink:href="#BitstreamVeraSans-Roman-57" /></g><line x1="778.698127298" x2="778.698127298" y1="0" y2="14.0" /><g stroke="none" transform="translate(886.513,11.5)"><use x="0" xlink:href="#BitstreamVeraSans-Roman-83" /><use x="0" xlink:href="#BitstreamVeraSans-Roman-83" /><use x="7.61719" xlink:href="#BitstreamVeraSans-Roman-101" /><use x="7.61719" xlink:href="#BitstreamVeraSans-Roman-101" /><use x="15" xlink:href="#BitstreamVeraSans-Roman-112" /><use x="15" xlink:href="#BitstreamVeraSans-Roman-112" /><use x="22.6172" xlink:href="#BitstreamVeraSans-Roman-32" /><use x="22.6172" xlink:href="#BitstreamVeraSans-Roman-32" /><use x="26.4316" xlink:href="#BitstreamVeraSans-Roman-50" /><use x="26.4316" xlink:href="#BitstreamVeraSans-Roman-50" /><use x="34.0664" xlink:href="#BitstreamVeraSans-Roman-48" /><use x="34.0664" xlink:href="#BitstreamVeraSans-Roman-48" /><use x="41.7012" xlink:href="#BitstreamVeraSans-Roman-48" /><use x="41.7012" xlink:href="#BitstreamVeraSans-Roman-48" /><use x="49.3359" xlink:href="#BitstreamVeraSans-Roman-57" /><use x="49.3359" xlink:href="#BitstreamVeraSans-Roman-57" /></g><line x1="873.452837776" x2="873.452837776" y1="0" y2="14.0" /><line x1="124.890625" x2="984" y1="14.0" y2="14.0" /><g stroke="none" transform="translate(127.804,25.5)"><use x="0" xlink:href="#BitstreamVeraSans-Roman-53" /><use x="0" xlink:href="#BitstreamVeraSans-Roman-53" /><use x="7.63477" xlink:href="#BitstreamVeraSans-Roman-50" /><use x="7.63477" xlink:href="#BitstreamVeraSans-Roman-50" /></g><line x1="124.890625" x2="124.890625" y1="14.0" y2="28" /><g stroke="none" transform="translate(150.731,25.5)"><use x="0" xlink:href="#BitstreamVeraSans-Roman-49" /><use x="0" xlink:href="#BitstreamVeraSans-Roman-49" /></g><line x1="143.841567096" x2="143.841567096" y1="14.0" y2="28" /><g stroke="none" transform="translate(169.518,25.5)"><use x="0" xlink:href="#BitstreamVeraSans-Roman-50" /><use x="0" xlink:href="#BitstreamVeraSans-Roman-50" /></g><line x1="162.792509191" x2="162.792509191" y1="14.0" y2="28" /><g stroke="none" transform="translate(188.336,25.5)"><use x="0" xlink:href="#BitstreamVeraSans-Roman-51" /><use x="0" xlink:href="#BitstreamVeraSans-Roman-51" /></g><line x1="181.743451287" x2="181.743451287" y1="14.0" y2="28" /><g stroke="none" transform="translate(207.006,25.5)"><use x="0" xlink:href="#BitstreamVeraSans-Roman-52" /><use x="0" xlink:href="#BitstreamVeraSans-Roman-52" /></g><line x1="200.694393382" x2="200.694393382" y1="14.0" y2="28" /><g stroke="none" transform="translate(226.3,25.5)"><use x="0" xlink:href="#BitstreamVeraSans-Roman-53" /><use x="0" xlink:href="#BitstreamVeraSans-Roman-53" /></g><line x1="219.645335478" x2="219.645335478" y1="14.0" y2="28" /><g stroke="none" transform="translate(245.064,25.5)"><use x="0" xlink:href="#BitstreamVeraSans-Roman-54" /><use x="0" xlink:href="#BitstreamVeraSans-Roman-54" /></g><line x1="238.596277574" x2="238.596277574" y1="14.0" y2="28" /><g stroke="none" transform="translate(264.21,25.5)"><use x="0" xlink:href="#BitstreamVeraSans-Roman-55" /><use x="0" xlink:href="#BitstreamVeraSans-Roman-55" /></g><line x1="257.547219669" x2="257.547219669" y1="14.0" y2="28" /><g stroke="none" transform="translate(282.974,25.5)"><use x="0" xlink:href="#BitstreamVeraSans-Roman-56" /><use x="0" xlink:href="#BitstreamVeraSans-Roman-56" /></g><line x1="276.498161765" x2="276.498161765" y1="14.0" y2="28" /><g stroke="none" transform="translate(301.925,25.5)"><use x="0" xlink:href="#BitstreamVeraSans-Roman-57" /><use x="0" xlink:href="#BitstreamVeraSans-Roman-57" /></g><line x1="295.44910386" x2="295.44910386" y1="14.0" y2="28" /><g stroke="none" transform="translate(317.344,25.5)"><use x="0" xlink:href="#BitstreamVeraSans-Roman-49" /><use x="0" xlink:href="#BitstreamVeraSans-Roman-49" /><use x="7.63477" xlink:href="#BitstreamVeraSans-Roman-48" /><use x="7.63477" xlink:href="#BitstreamVeraSans-Roman-48" /></g><line x1="314.400045956" x2="314.400045956" y1="14.0" y2="28" /><g stroke="none" transform="translate(336.428,25.5)"><use x="0" xlink:href="#BitstreamVeraSans-Roman-49" /><use x="0" xlink:href="#BitstreamVeraSans-Roman-49" /><use x="7.63477" xlink:href="#BitstreamVeraSans-Roman-49" /><use x="7.63477" xlink:href="#BitstreamVeraSans-Roman-49" /></g><line x1="333.350988051" x2="333.350988051" y1="14.0" y2="28" /><g stroke="none" transform="translate(355.441,25.5)"><use x="0" xlink:href="#BitstreamVeraSans-Roman-49" /><use x="0" xlink:href="#BitstreamVeraSans-Roman-49" /><use x="7.63477" xlink:href="#BitstreamVeraSans-Roman-50" /><use x="7.63477" xlink:href="#BitstreamVeraSans-Roman-50" /></g><line x1="352.301930147" x2="352.301930147" y1="14.0" y2="28" /><g stroke="none" transform="translate(374.267,25.5)"><use x="0" xlink:href="#BitstreamVeraSans-Roman-49" /><use x="0" xlink:href="#BitstreamVeraSans-Roman-49" /><use x="7.63477" xlink:href="#BitstreamVeraSans-Roman-51" /><use x="7.63477" xlink:href="#BitstreamVeraSans-Roman-51" /></g><line x1="371.252872243" x2="371.252872243" y1="14.0" y2="28" /><g stroke="none" transform="translate(393.086,25.5)"><use x="0" xlink:href="#BitstreamVeraSans-Roman-49" /><use x="0" xlink:href="#BitstreamVeraSans-Roman-49" /><use x="7.63477" xlink:href="#BitstreamVeraSans-Roman-52" /><use x="7.63477" xlink:href="#BitstreamVeraSans-Roman-52" /></g><line x1="390.203814338" x2="390.203814338" y1="14.0" y2="28" /><g stroke="none" transform="translate(412.224,25.5)"><use x="0" xlink:href="#BitstreamVeraSans-Roman-49" /><use x="0" xlink:href="#BitstreamVeraSans-Roman-49" /><use x="7.63477" xlink:href="#BitstreamVeraSans-Roman-53" /><use x="7.63477" xlink:href="#BitstreamVeraSans-Roman-53" /></g><line x1="409.154756434" x2="409.154756434" y1="14.0" y2="28" /><g stroke="none" transform="translate(430.987,25.5)"><use x="0" xlink:href="#BitstreamVeraSans-Roman-49" /><use x="0" xlink:href="#BitstreamVeraSans-Roman-49" /><use x="7.63477" xlink:href="#BitstreamVeraSans-Roman-54" /><use x="7.63477" xlink:href="#BitstreamVeraSans-Roman-54" /></g><line x1="428.105698529" x2="428.105698529" y1="14.0" y2="28" /><g stroke="none" transform="translate(450.071,25.5)"><use x="0" xlink:href="#BitstreamVeraSans-Roman-49" /><use x="0" xlink:href="#BitstreamVeraSans-Roman-49" /><use x="7.63477" xlink:href="#BitstreamVeraSans-Roman-55" /><use x="7.63477" xlink:href="#BitstreamVeraSans-Roman-55" /></g><line x1="447.056640625" x2="447.056640625" y1="14.0" y2="28" /><g stroke="none" transform="translate(468.897,25.5)"><use x="0" xlink:href="#BitstreamVeraSans-Roman-49" /><use x="0" xlink:href="#BitstreamVeraSans-Roman-49" /><use x="7.63477" xlink:href="#BitstreamVeraSans-Roman-56" /><use x="7.63477" xlink:href="#BitstreamVeraSans-Roman-56" /></g><line x1="466.007582721" x2="466.007582721" y1="14.0" y2="28" /><g stroke="none" transform="translate(487.911,25.5)"><use x="0" xlink:href="#BitstreamVeraSans-Roman-49" /><use x="0" xlink:href="#BitstreamVeraSans-Roman-49" /><use x="7.63477" xlink:href="#BitstreamVeraSans-Roman-57" /><use x="7.63477" xlink:href="#BitstreamVeraSans-Roman-57" /></g><line x1="484.958524816" x2="484.958524816" y1="14.0" y2="28" /><g stroke="none" transform="translate(506.627,25.5)"><use x="0" xlink:href="#BitstreamVeraSans-Roman-50" /><use x="0" xlink:href="#BitstreamVeraSans-Roman-50" /><use x="7.63477" xlink:href="#BitstreamVeraSans-Roman-48" /><use x="7.63477" xlink:href="#BitstreamVeraSans-Roman-48" /></g><line x1="503.909466912" x2="503.909466912" y1="14.0" y2="28" /><g stroke="none" transform="translate(525.711,25.5)"><use x="0" xlink:href="#BitstreamVeraSans-Roman-50" /><use x="0" xlink:href="#BitstreamVeraSans-Roman-50" /><use x="7.63477" xlink:href="#BitstreamVeraSans-Roman-49" /><use x="7.63477" xlink:href="#BitstreamVeraSans-Roman-49" /></g><line x1="522.860409007" x2="522.860409007" y1="14.0" y2="28" /><g stroke="none" transform="translate(544.724,25.5)"><use x="0" xlink:href="#BitstreamVeraSans-Roman-50" /><use x="0" xlink:href="#BitstreamVeraSans-Roman-50" /><use x="7.63477" xlink:href="#BitstreamVeraSans-Roman-50" /><use x="7.63477" xlink:href="#BitstreamVeraSans-Roman-50" /></g><line x1="541.811351103" x2="541.811351103" y1="14.0" y2="28" /><g stroke="none" transform="translate(563.55,25.5)"><use x="0" xlink:href="#BitstreamVeraSans-Roman-50" /><use x="0" xlink:href="#BitstreamVeraSans-Roman-50" /><use x="7.63477" xlink:href="#BitstreamVeraSans-Roman-51" /><use x="7.63477" xlink:href="#BitstreamVeraSans-Roman-51" /></g><line x1="560.762293199" x2="560.762293199" y1="14.0" y2="28" /><g stroke="none" transform="translate(582.368,25.5)"><use x="0" xlink:href="#BitstreamVeraSans-Roman-50" /><use x="0" xlink:href="#BitstreamVeraSans-Roman-50" /><use x="7.63477" xlink:href="#BitstreamVeraSans-Roman-52" /><use x="7.63477" xlink:href="#BitstreamVeraSans-Roman-52" /></g><line x1="579.713235294" x2="579.713235294" y1="14.0" y2="28" /><g stroke="none" transform="translate(601.507,25.5)"><use x="0" xlink:href="#BitstreamVeraSans-Roman-50" /><use x="0" xlink:href="#BitstreamVeraSans-Roman-50" /><use x="7.63477" xlink:href="#BitstreamVeraSans-Roman-53" /><use x="7.63477" xlink:href="#BitstreamVeraSans-Roman-53" /></g><line x1="598.66417739" x2="598.66417739" y1="14.0" y2="28" /><g stroke="none" transform="translate(620.27,25.5)"><use x="0" xlink:href="#BitstreamVeraSans-Roman-50" /><use x="0" xlink:href="#BitstreamVeraSans-Roman-50" /><use x="7.63477" xlink:href="#BitstreamVeraSans-Roman-54" /><use x="7.63477" xlink:href="#BitstreamVeraSans-Roman-54" /></g><line x1="617.615119485" x2="617.615119485" y1="14.0" y2="28" /><g stroke="none" transform="translate(639.354,25.5)"><use x="0" xlink:href="#BitstreamVeraSans-Roman-50" /><use x="0" xlink:href="#BitstreamVeraSans-Roman-50" /><use x="7.63477" xlink:href="#BitstreamVeraSans-Roman-55" /><use x="7.63477" xlink:href="#BitstreamVeraSans-Roman-55" /></g><line x1="636.566061581" x2="636.566061581" y1="14.0" y2="28" /><g stroke="none" transform="translate(658.18,25.5)"><use x="0" xlink:href="#BitstreamVeraSans-Roman-50" /><use x="0" xlink:href="#BitstreamVeraSans-Roman-50" /><use x="7.63477" xlink:href="#BitstreamVeraSans-Roman-56" /><use x="7.63477" xlink:href="#BitstreamVeraSans-Roman-56" /></g><line x1="655.517003676" x2="655.517003676" y1="14.0" y2="28" /><g stroke="none" transform="translate(677.193,25.5)"><use x="0" xlink:href="#BitstreamVeraSans-Roman-50" /><use x="0" xlink:href="#BitstreamVeraSans-Roman-50" /><use x="7.63477" xlink:href="#BitstreamVeraSans-Roman-57" /><use x="7.63477" xlink:href="#BitstreamVeraSans-Roman-57" /></g><line x1="674.467945772" x2="674.467945772" y1="14.0" y2="28" /><g stroke="none" transform="translate(696.129,25.5)"><use x="0" xlink:href="#BitstreamVeraSans-Roman-51" /><use x="0" xlink:href="#BitstreamVeraSans-Roman-51" /><use x="7.63477" xlink:href="#BitstreamVeraSans-Roman-48" /><use x="7.63477" xlink:href="#BitstreamVeraSans-Roman-48" /></g><line x1="693.418887868" x2="693.418887868" y1="14.0" y2="28" /><g stroke="none" transform="translate(715.212,25.5)"><use x="0" xlink:href="#BitstreamVeraSans-Roman-51" /><use x="0" xlink:href="#BitstreamVeraSans-Roman-51" /><use x="7.63477" xlink:href="#BitstreamVeraSans-Roman-49" /><use x="7.63477" xlink:href="#BitstreamVeraSans-Roman-49" /></g><line x1="712.369829963" x2="712.369829963" y1="14.0" y2="28" /><g stroke="none" transform="translate(734.226,25.5)"><use x="0" xlink:href="#BitstreamVeraSans-Roman-51" /><use x="0" xlink:href="#BitstreamVeraSans-Roman-51" /><use x="7.63477" xlink:href="#BitstreamVeraSans-Roman-50" /><use x="7.63477" xlink:href="#BitstreamVeraSans-Roman-50" /></g><line x1="731.320772059" x2="731.320772059" y1="14.0" y2="28" /><g stroke="none" transform="translate(753.052,25.5)"><use x="0" xlink:href="#BitstreamVeraSans-Roman-51" /><use x="0" xlink:href="#BitstreamVeraSans-Roman-51" /><use x="7.63477" xlink:href="#BitstreamVeraSans-Roman-51" /><use x="7.63477" xlink:href="#BitstreamVeraSans-Roman-51" /></g><line x1="750.271714154" x2="750.271714154" y1="14.0" y2="28" /><g stroke="none" transform="translate(771.87,25.5)"><use x="0" xlink:href="#BitstreamVeraSans-Roman-51" /><use x="0" xlink:href="#BitstreamVeraSans-Roman-51" /><use x="7.63477" xlink:href="#BitstreamVeraSans-Roman-52" /><use x="7.63477" xlink:href="#BitstreamVeraSans-Roman-52" /></g><line x1="769.22265625" x2="769.22265625" y1="14.0" y2="28" /><g stroke="none" transform="translate(791.008,25.5)"><use x="0" xlink:href="#BitstreamVeraSans-Roman-51" /><use x="0" xlink:href="#BitstreamVeraSans-Roman-51" /><use x="7.63477" xlink:href="#BitstreamVeraSans-Roman-53" /><use x="7.63477" xlink:href="#BitstreamVeraSans-Roman-53" /></g><line x1="788.173598346" x2="788.173598346" y1="14.0" y2="28" /><g stroke="none" transform="translate(809.772,25.5)"><use x="0" xlink:href="#BitstreamVeraSans-Roman-51" /><use x="0" xlink:href="#BitstreamVeraSans-Roman-51" /><use x="7.63477" xlink:href="#BitstreamVeraSans-Roman-54" /><use x="7.63477" xlink:href="#BitstreamVeraSans-Roman-54" /></g><line x1="807.124540441" x2="807.124540441" y1="14.0" y2="28" /><g stroke="none" transform="translate(828.856,25.5)"><use x="0" xlink:href="#BitstreamVeraSans-Roman-51" /><use x="0" xlink:href="#BitstreamVeraSans-Roman-51" /><use x="7.63477" xlink:href="#BitstreamVeraSans-Roman-55" /><use x="7.63477" xlink:href="#BitstreamVeraSans-Roman-55" /></g><line x1="826.075482537" x2="826.075482537" y1="14.0" y2="28" /><g stroke="none" transform="translate(847.682,25.5)"><use x="0" xlink:href="#BitstreamVeraSans-Roman-51" /><use x="0" xlink:href="#BitstreamVeraSans-Roman-51" /><use x="7.63477" xlink:href="#BitstreamVeraSans-Roman-56" /><use x="7.63477" xlink:href="#BitstreamVeraSans-Roman-56" /></g><line x1="845.026424632" x2="845.026424632" y1="14.0" y2="28" /><g stroke="none" transform="translate(866.695,25.5)"><use x="0" xlink:href="#BitstreamVeraSans-Roman-51" /><use x="0" xlink:href="#BitstreamVeraSans-Roman-51" /><use x="7.63477" xlink:href="#BitstreamVeraSans-Roman-57" /><use x="7.63477" xlink:href="#BitstreamVeraSans-Roman-57" /></g><line x1="863.977366728" x2="863.977366728" y1="14.0" y2="28" /><g stroke="none" transform="translate(885.49,25.5)"><use x="0" xlink:href="#BitstreamVeraSans-Roman-52" /><use x="0" xlink:href="#BitstreamVeraSans-Roman-52" /><use x="7.63477" xlink:href="#BitstreamVeraSans-Roman-48" /><use x="7.63477" xlink:href="#BitstreamVeraSans-Roman-48" /></g><line x1="882.928308824" x2="882.928308824" y1="14.0" y2="28" /><g stroke="none" transform="translate(904.573,25.5)"><use x="0" xlink:href="#BitstreamVeraSans-Roman-52" /><use x="0" xlink:href="#BitstreamVeraSans-Roman-52" /><use x="7.63477" xlink:href="#BitstreamVeraSans-Roman-49" /><use x="7.63477" xlink:href="#BitstreamVeraSans-Roman-49" /></g><line x1="901.879250919" x2="901.879250919" y1="14.0" y2="28" /><g stroke="none" transform="translate(923.587,25.5)"><use x="0" xlink:href="#BitstreamVeraSans-Roman-52" /><use x="0" xlink:href="#BitstreamVeraSans-Roman-52" /><use x="7.63477" xlink:href="#BitstreamVeraSans-Roman-50" /><use x="7.63477" xlink:href="#BitstreamVeraSans-Roman-50" /></g><line x1="920.830193015" x2="920.830193015" y1="14.0" y2="28" /><g stroke="none" transform="translate(942.413,25.5)"><use x="0" xlink:href="#BitstreamVeraSans-Roman-52" /><use x="0" xlink:href="#BitstreamVeraSans-Roman-52" /><use x="7.63477" xlink:href="#BitstreamVeraSans-Roman-51" /><use x="7.63477" xlink:href="#BitstreamVeraSans-Roman-51" /></g><line x1="939.78113511" x2="939.78113511" y1="14.0" y2="28" /><g stroke="none" transform="translate(961.231,25.5)"><use x="0" xlink:href="#BitstreamVeraSans-Roman-52" /><use x="0" xlink:href="#BitstreamVeraSans-Roman-52" /><use x="7.63477" xlink:href="#BitstreamVeraSans-Roman-52" /><use x="7.63477" xlink:href="#BitstreamVeraSans-Roman-52" /></g><line x1="958.732077206" x2="958.732077206" y1="14.0" y2="28" /><line x1="977.683019301" x2="977.683019301" y1="14.0" y2="28" /><rect fill="#476fb2" height="28" width="688.55089614" x="143.841567096" y="28" /><g stroke="none" transform="translate(475.492,46.5)"><use x="0" xlink:href="#BitstreamVeraSans-Roman-57" /><use x="0" xlink:href="#BitstreamVeraSans-Roman-57" /><use x="7.63477" xlink:href="#BitstreamVeraSans-Roman-48" /><use x="7.63477" xlink:href="#BitstreamVeraSans-Roman-48" /><use x="15.2695" xlink:href="#BitstreamVeraSans-Roman-37" /><use x="15.2695" xlink:href="#BitstreamVeraSans-Roman-37" /></g><rect fill="#be2c2b" height="28" width="502.199965533" x="352.301930147" y="56" /><g stroke="none" transform="translate(590.839,74.5)"><use x="0" xlink:href="#BitstreamVeraSans-Roman-53" /><use x="0" xlink:href="#BitstreamVeraSans-Roman-53" /><use x="7.63477" xlink:href="#BitstreamVeraSans-Roman-48" /><use x="7.63477" xlink:href="#BitstreamVeraSans-Roman-48" /><use x="15.2695" xlink:href="#BitstreamVeraSans-Roman-37" /><use x="15.2695" xlink:href="#BitstreamVeraSans-Roman-37" /></g><rect fill="#85b730" height="28" width="404.286764706" x="472.324563419" y="84" /><g stroke="none" transform="translate(661.968,102.5)"><use x="0" xlink:href="#BitstreamVeraSans-Roman-55" /><use x="0" xlink:href="#BitstreamVeraSans-Roman-55" /><use x="7.63477" xlink:href="#BitstreamVeraSans-Roman-48" /><use x="7.63477" xlink:href="#BitstreamVeraSans-Roman-48" /><use x="15.2695" xlink:href="#BitstreamVeraSans-Roman-37" /><use x="15.2695" xlink:href="#BitstreamVeraSans-Roman-37" /></g><rect fill="#734a99" height="28" width="309.532054228" x="589.188706342" y="112" /><g stroke="none" transform="translate(731.619,130.5)"><use x="0" xlink:href="#BitstreamVeraSans-Roman-49" /><use x="0" xlink:href="#BitstreamVeraSans-Roman-49" /><use x="7.63477" xlink:href="#BitstreamVeraSans-Roman-48" /><use x="7.63477" xlink:href="#BitstreamVeraSans-Roman-48" /><use x="15.2695" xlink:href="#BitstreamVeraSans-Roman-37" /><use x="15.2695" xlink:href="#BitstreamVeraSans-Roman-37" /></g><rect fill="#26a1c5" height="28" width="394.811293658" x="589.188706342" y="140" /><g stroke="none" transform="translate(774.032,158.5)"><use x="0" xlink:href="#BitstreamVeraSans-Roman-50" /><use x="0" xlink:href="#BitstreamVeraSans-Roman-50" /><use x="7.63477" xlink:href="#BitstreamVeraSans-Roman-53" /><use x="7.63477" xlink:href="#BitstreamVeraSans-Roman-53" /><use x="15.2695" xlink:href="#BitstreamVeraSans-Roman-37" /><use x="15.2695" xlink:href="#BitstreamVeraSans-Roman-37" /></g></g></svg>