<?xml version="1.0" standalone="no"?>
<!DOCTYPE svg PUBLIC "-//W3C//DTD SVG 1.1//EN" 
  "http://www.w3.org/Graphics/SVG/1.1/DTD/svg11.dtd"><svg height="100" version="1.1" width="100" xmlns="http://www.w3.org/2000/svg" xmlns:svg="http://www.w3.org/2000/svg" xmlns:xlink="http://www.w3.org/1999/xlink"><defs><path d="M 4.1875 -0 Q 3.23438 -0 2.5 -0.578125 Q 1.76562 -1.15625 1.375 -2.07812 Q 1 -3 1 -3.96875 Q 1 -4.71875 1.21875 -5.42188 Q 1.45312 -6.14062 1.875 -6.70312 Q 2.29688 -7.26562 2.90625 -7.59375 Q 3.51562 -7.9375 4.23438 -7.9375 Q 4.98438 -7.9375 5.6875 -7.625 Q 6.40625 -7.32812 6.98438 -6.82812 Q 7.57812 -6.34375 8.07812 -5.70312 L 8.57812 -5 Q 9.07812 -5.8125 9.6875 -6.46875 Q 10.2969 -7.14062 11.0625 -7.53125 Q 11.8281 -7.9375 12.6875 -7.9375 Q 13.4219 -7.9375 14.0156 -7.59375 Q 14.6094 -7.25 15.0312 -6.67188 Q 15.4531 -6.09375 15.6562 -5.39062 Q 15.875 -4.6875 15.875 -3.96875 Q 15.875 -2.98438 15.4688 -2.0625 Q 15.0781 -1.14062 14.3438 -0.5625 Q 13.6094 -0 12.6406 -0 Q 11.5469 -0 10.5469 -0.609375 Q 9.5625 -1.21875 8.79688 -2.23438 L 8.29688 -2.9375 Q 7.53125 -1.625 6.48438 -0.8125 Q 5.4375 -0 4.1875 -0 M 3.98438 -0.59375 Q 6.125 -0.59375 7.8125 -3.57812 L 6.92188 -4.76562 Q 6.15625 -5.84375 5.48438 -6.45312 Q 4.8125 -7.0625 3.92188 -7.0625 Q 3.17188 -7.0625 2.59375 -6.60938 Q 2.01562 -6.17188 1.6875 -5.45312 Q 1.375 -4.73438 1.375 -3.95312 Q 1.375 -3.35938 1.54688 -2.75 Q 1.73438 -2.15625 2.0625 -1.67188 Q 2.40625 -1.1875 2.89062 -0.890625 Q 3.375 -0.59375 3.98438 -0.59375 M 9.95312 -3.15625 Q 10.7188 -2.07812 11.3906 -1.46875 Q 12.0625 -0.875 12.9531 -0.875 Q 13.5156 -0.875 13.9844 -1.125 Q 14.4531 -1.39062 14.7969 -1.82812 Q 15.1406 -2.28125 15.3125 -2.82812 Q 15.5 -3.39062 15.5 -3.95312 Q 15.5 -4.78125 15.1875 -5.5625 Q 14.875 -6.35938 14.2812 -6.85938 Q 13.6875 -7.35938 12.8906 -7.35938 Q 10.75 -7.35938 9.0625 -4.34375 Z" id="cmsy10-Regular-16px-49" /><path d="M 1.57812 34.1562 Q 1.34375 34.1562 1.34375 33.8906 Q 1.34375 33.7812 1.42188 33.7031 L 14.0938 18.6406 L 1.42188 1.0625 Q 1.34375 1 1.34375 0.953125 L 1.34375 0.21875 Q 1.34375 0.125 1.42188 0.0625 Q 1.5 -0 1.57812 -0 L 30.3906 -0 L 33.2969 6.70312 L 32.5938 6.70312 Q 31.4844 4.09375 28.8594 2.84375 Q 26.25 1.57812 23.4062 1.29688 Q 20.5625 1 16.8125 1 L 5.70312 1 L 17.0469 16.8125 Q 17.0938 16.9062 17.0938 17 Q 17.0938 17.0625 17.0469 17.1719 L 4.57812 32 L 17.0469 32 Q 20.7344 32 23.5781 31.7031 Q 26.4375 31.4062 29.0156 30.1406 Q 31.6094 28.875 32.5938 26.2812 L 33.2969 26.2812 L 30.3906 34.1562 Z" id="cmex10-Regular-24px-88" /><path d="M 1.25 -1.45312 Q 1.25 -1.79688 1.39062 -2.14062 L 2.78125 -5.95312 Q 3 -6.59375 3 -7.01562 Q 3 -7.53125 2.625 -7.53125 Q 1.95312 -7.53125 1.51562 -6.8125 Q 1.07812 -6.10938 0.875 -5.21875 Q 0.84375 -5.10938 0.734375 -5.10938 L 0.53125 -5.10938 Q 0.390625 -5.10938 0.390625 -5.28125 L 0.390625 -5.32812 Q 0.671875 -6.375 1.23438 -7.1875 Q 1.79688 -8 2.67188 -8 Q 3.28125 -8 3.70312 -7.57812 Q 4.125 -7.17188 4.125 -6.54688 Q 4.125 -6.20312 3.98438 -5.85938 L 2.60938 -2.0625 Q 2.375 -1.46875 2.375 -1 Q 2.375 -0.484375 2.76562 -0.484375 Q 3.42188 -0.484375 3.85938 -1.21875 Q 4.29688 -1.95312 4.46875 -2.79688 Q 4.51562 -2.90625 4.60938 -2.90625 L 4.8125 -2.90625 Q 4.875 -2.90625 4.90625 -2.85938 Q 4.95312 -2.8125 4.95312 -2.75 Q 4.95312 -2.73438 4.9375 -2.70312 Q 4.71875 -1.70312 4.14062 -0.84375 Q 3.57812 -0 2.73438 -0 Q 2.125 -0 1.6875 -0.421875 Q 1.25 -0.859375 1.25 -1.45312 M 3.125 -11 Q 3.125 -11.375 3.42188 -11.6875 Q 3.71875 -12 4.07812 -12 Q 4.375 -12 4.5625 -11.8125 Q 4.75 -11.625 4.75 -11.3281 Q 4.75 -10.9219 4.4375 -10.6094 Q 4.14062 -10.3125 3.78125 -10.3125 Q 3.5 -10.3125 3.3125 -10.5 Q 3.125 -10.7031 3.125 -11" id="cmmi10-Regular-16px-105" /><path d="M 1.26562 -2.15625 Q 1.125 -2.15625 1.03125 -2.26562 Q 0.9375 -2.375 0.9375 -2.51562 Q 0.9375 -2.65625 1.03125 -2.75 Q 1.125 -2.85938 1.26562 -2.85938 L 11.8125 -2.85938 Q 11.9375 -2.85938 12.0156 -2.75 Q 12.1094 -2.65625 12.1094 -2.51562 Q 12.1094 -2.375 12.0156 -2.26562 Q 11.9375 -2.15625 11.8125 -2.15625 Z M 1.26562 -5.15625 Q 1.125 -5.15625 1.03125 -5.25 Q 0.9375 -5.35938 0.9375 -5.5 Q 0.9375 -5.625 1.03125 -5.73438 Q 1.125 -5.84375 1.26562 -5.84375 L 11.8125 -5.84375 Q 11.9375 -5.84375 12.0156 -5.73438 Q 12.1094 -5.625 12.1094 -5.5 Q 12.1094 -5.35938 12.0156 -5.25 Q 11.9375 -5.15625 11.8125 -5.15625 Z" id="cmr10-Regular-16px-61" /><path d="M 4.1875 -0 Q 2.10938 -0 1.35938 -1.75 Q 0.625 -3.51562 0.625 -5.9375 Q 0.625 -7.45312 0.890625 -8.78125 Q 1.15625 -10.125 1.95312 -11.0625 Q 2.75 -12 4.1875 -12 Q 5.29688 -12 6 -11.4375 Q 6.70312 -10.875 7.07812 -9.96875 Q 7.45312 -9.07812 7.57812 -8.0625 Q 7.71875 -7.04688 7.71875 -5.9375 Q 7.71875 -4.4375 7.45312 -3.125 Q 7.1875 -1.82812 6.40625 -0.90625 Q 5.625 -0 4.1875 -0 M 4.14062 -0.453125 Q 5.09375 -0.453125 5.5625 -1.45312 Q 6.03125 -2.45312 6.14062 -3.65625 Q 6.25 -4.85938 6.25 -6.21875 Q 6.25 -7.53125 6.14062 -8.625 Q 6.03125 -9.73438 5.57812 -10.625 Q 5.125 -11.5312 4.1875 -11.5312 Q 3.23438 -11.5312 2.76562 -10.625 Q 2.3125 -9.73438 2.20312 -8.625 Q 2.09375 -7.53125 2.09375 -6.21875 Q 2.09375 -5.25 2.09375 -4.39062 Q 2.09375 -3.53125 2.29688 -2.60938 Q 2.5 -1.70312 2.9375 -1.07812 Q 3.39062 -0.453125 4.14062 -0.453125" id="cmr10-Regular-16px-48" /><path d="M 1.85938 -1.07812 Q 2.28125 -0.75 3.0625 -0.75 Q 3.8125 -0.75 4.39062 -1.45312 Q 4.96875 -2.17188 5.17188 -3.03125 L 6.26562 -7.21875 Q 6.53125 -8.35938 6.53125 -8.78125 Q 6.53125 -9.35938 6.1875 -9.79688 Q 5.85938 -10.25 5.26562 -10.25 Q 4.5 -10.25 3.82812 -9.78125 Q 3.15625 -9.3125 2.70312 -8.57812 Q 2.25 -7.85938 2.0625 -7.125 Q 2.01562 -6.96875 1.875 -6.96875 L 1.57812 -6.96875 Q 1.39062 -6.96875 1.39062 -7.1875 L 1.39062 -7.26562 Q 1.625 -8.17188 2.1875 -9.04688 Q 2.75 -9.92188 3.5625 -10.4531 Q 4.39062 -11 5.3125 -11 Q 6.20312 -11 6.90625 -10.5 Q 7.625 -10 7.92188 -9.14062 Q 8.32812 -9.92188 8.95312 -10.4531 Q 9.59375 -11 10.3594 -11 Q 10.875 -11 11.4062 -10.8125 Q 11.9531 -10.625 12.2812 -10.2344 Q 12.625 -9.84375 12.625 -9.28125 Q 12.625 -8.64062 12.2344 -8.1875 Q 11.8594 -7.73438 11.2656 -7.73438 Q 10.875 -7.73438 10.625 -7.96875 Q 10.375 -8.20312 10.375 -8.57812 Q 10.375 -9.09375 10.7031 -9.45312 Q 11.0469 -9.82812 11.5312 -9.90625 Q 11.0938 -10.25 10.3281 -10.25 Q 9.54688 -10.25 8.96875 -9.54688 Q 8.40625 -8.84375 8.17188 -7.95312 L 7.10938 -3.78125 Q 6.84375 -2.82812 6.84375 -2.21875 Q 6.84375 -1.60938 7.1875 -1.17188 Q 7.54688 -0.75 8.10938 -0.75 Q 9.23438 -0.75 10.125 -1.73438 Q 11.0156 -2.71875 11.2969 -3.875 Q 11.3438 -4.01562 11.4844 -4.01562 L 11.7656 -4.01562 Q 11.8594 -4.01562 11.9219 -3.95312 Q 11.9844 -3.89062 11.9844 -3.79688 Q 11.9844 -3.78125 11.9531 -3.73438 Q 11.625 -2.28125 10.5312 -1.14062 Q 9.4375 -0 8.0625 -0 Q 7.1875 -0 6.46875 -0.5 Q 5.75 -1 5.45312 -1.85938 Q 5.09375 -1.10938 4.42188 -0.546875 Q 3.76562 -0 3.03125 -0 Q 2.51562 -0 1.96875 -0.1875 Q 1.42188 -0.375 1.07812 -0.75 Q 0.75 -1.14062 0.75 -1.73438 Q 0.75 -2.3125 1.125 -2.78125 Q 1.51562 -3.26562 2.09375 -3.26562 Q 2.46875 -3.26562 2.73438 -3.03125 Q 3 -2.79688 3 -2.40625 Q 3 -1.90625 2.67188 -1.53125 Q 2.34375 -1.17188 1.85938 -1.07812" id="cmmi10-Regular-24px-120" /></defs><g transform="translate(1,50)"><use transform="translate(9,-30.5734)" xlink:href="#cmsy10-Regular-16px-49" /><use transform="translate(0,-25.8875)" xlink:href="#cmex10-Regular-24px-88" /><use transform="translate(0,23.3953)" xlink:href="#cmmi10-Regular-16px-105" /><use transform="translate(8.73305,23.3953)" xlink:href="#cmr10-Regular-16px-61" /><use transform="translate(22.8501,23.3953)" xlink:href="#cmr10-Regular-16px-48" /><use transform="translate(31.9375,-0.590625)" xlink:href="#cmmi10-Regular-24px-120" /><use transform="translate(45.6367,5.53162)" xlink:href="#cmmi10-Regular-16px-105" /></g></svg>